<?xml version="1.0" encoding="UTF-8"?>
<svg version="1.1" xmlns="http://www.w3.org/2000/svg" width="512" height="512">
<path d="M0 0 C0.90325516 -0.00671722 1.80651031 -0.01343445 2.73713684 -0.02035522 C5.71307936 -0.03929981 8.68879591 -0.0432577 11.66479492 -0.04541016 C13.742163 -0.05184073 15.81953017 -0.05856928 17.89689636 -0.06558228 C22.2486684 -0.07754633 26.60036111 -0.08126401 30.95214844 -0.08007812 C36.51371651 -0.07987503 42.07477304 -0.10717132 47.63621998 -0.14162254 C51.92663383 -0.16391938 56.21692513 -0.1679148 60.50739098 -0.16685867 C62.55700123 -0.16921065 64.60661508 -0.17801136 66.65616798 -0.19352341 C69.53025195 -0.21323877 72.40324009 -0.20732344 75.27734375 -0.1953125 C76.53312225 -0.21217102 76.53312225 -0.21217102 77.81427002 -0.22937012 C84.49589605 -0.15883175 90.7432691 1.38253213 95.72317219 6.06987953 C99.93671703 10.75610965 102.08518373 14.48853478 102.07327271 20.89666748 C102.0773967 22.60878166 102.0773967 22.60878166 102.081604 24.35548401 C102.07441345 25.60345261 102.0672229 26.8514212 102.05981445 28.13720703 C102.06010651 29.45452316 102.06039856 30.77183929 102.06069946 32.1290741 C102.06127327 35.73828087 102.04951442 39.34735469 102.03555155 42.95653057 C102.02304891 46.72949741 102.02187406 50.5024673 102.01950073 54.27545166 C102.01328459 61.41874845 101.99687196 68.56198401 101.97680175 75.70525384 C101.95444693 83.83819413 101.94345037 91.97113734 101.93341088 100.1041007 C101.91250585 116.83294542 101.87732727 133.56172857 101.83276367 150.29052734 C102.52114319 150.28591838 103.20952271 150.28130941 103.91876221 150.27656078 C120.68702322 150.16602421 137.45516847 150.08334309 154.22370911 150.03146648 C162.33294784 150.00571095 170.44194301 149.97061151 178.55102539 149.91333008 C185.62088755 149.86341346 192.69057328 149.83121706 199.76060677 149.82008487 C203.50245131 149.81357994 207.24379121 149.79834799 210.98547363 149.76187706 C215.16786862 149.72144302 219.34939249 149.72058318 223.53198242 149.72290039 C225.38236366 149.69593582 225.38236366 149.69593582 227.27012634 149.66842651 C235.39249354 149.71710316 240.44001135 151.10410243 246.34672546 156.73337841 C251.7483168 162.66523446 252.13146258 168.85521111 252.12329102 176.45776367 C252.13000824 177.36101883 252.13672546 178.26427399 252.14364624 179.19490051 C252.16259083 182.17084303 252.16654871 185.14655958 252.16870117 188.12255859 C252.17513174 190.19992667 252.1818603 192.27729384 252.18887329 194.35466003 C252.20083735 198.70643208 252.20455503 203.05812479 252.20336914 207.40991211 C252.20316605 212.97148018 252.23046233 218.53253671 252.26491356 224.09398365 C252.28721039 228.3843975 252.29120582 232.6746888 252.29014969 236.96515465 C252.29250167 239.01476491 252.30130237 241.06437875 252.31681442 243.11393166 C252.33652979 245.98801562 252.33061446 248.86100376 252.31860352 251.73510742 C252.32984253 252.57229309 252.34108154 253.40947876 252.35266113 254.27203369 C252.28212277 260.95365972 250.74075889 267.20103277 246.05341148 272.18093586 C241.36718136 276.3944807 237.63475624 278.5429474 231.22662354 278.53103638 C230.08521408 278.53378571 228.94380463 278.53653503 227.76780701 278.53936768 C226.51983841 278.53217712 225.27186981 278.52498657 223.98608398 278.51757812 C222.66876785 278.51787018 221.35145172 278.51816223 219.99421692 278.51846313 C216.38501015 278.51903695 212.77593632 278.50727809 209.16676044 278.49331522 C205.3937936 278.48081258 201.62082372 278.47963773 197.84783936 278.4772644 C190.70454257 278.47104826 183.561307 278.45463563 176.41803718 278.43456542 C168.28509689 278.4122106 160.15215368 278.40121404 152.01919031 278.39117455 C135.29034559 278.37026952 118.56156245 278.33509094 101.83276367 278.29052734 C101.83737264 278.97890686 101.8419816 279.66728638 101.84673023 280.37652588 C101.9572668 297.14478689 102.03994792 313.91293214 102.09182453 330.68147278 C102.11758007 338.79071151 102.15267951 346.89970668 102.20996094 355.00878906 C102.25987755 362.07865122 102.29207396 369.14833695 102.30320615 376.21837044 C102.30971107 379.96021498 102.32494302 383.70155488 102.36141396 387.4432373 C102.40184799 391.62563229 102.40270783 395.80715617 102.40039062 399.98974609 C102.418367 401.22333359 102.43634338 402.45692108 102.4548645 403.72789001 C102.40618785 411.85025721 101.01918859 416.89777503 95.38991261 422.80448914 C89.45805655 428.20608047 83.26807991 428.58922625 75.66552734 428.58105469 C74.76227219 428.58777191 73.85901703 428.59448914 72.9283905 428.60140991 C69.95244798 428.6203545 66.97673144 428.62431239 64.00073242 428.62646484 C61.92336435 428.63289542 59.84599717 428.63962397 57.76863098 428.64663696 C53.41685894 428.65860102 49.06516623 428.6623187 44.71337891 428.66113281 C39.15181084 428.66092972 33.59075431 428.688226 28.02930737 428.72267723 C23.73889352 428.74497406 19.44860221 428.74896949 15.15813637 428.74791336 C13.10852611 428.75026534 11.05891227 428.75906604 9.00935936 428.77457809 C6.13527539 428.79429346 3.26228726 428.78837813 0.38818359 428.77636719 C-0.44900208 428.7876062 -1.28618774 428.79884521 -2.14874268 428.8104248 C-8.83036871 428.73988644 -15.07774176 427.19852256 -20.05764484 422.51117516 C-24.27118969 417.82494504 -26.41965639 414.09251991 -26.40774536 407.68438721 C-26.41186935 405.97227303 -26.41186935 405.97227303 -26.41607666 404.22557068 C-26.40529083 402.35361778 -26.40529083 402.35361778 -26.39428711 400.44384766 C-26.39457916 399.12653152 -26.39487122 397.80921539 -26.39517212 396.45198059 C-26.39574593 392.84277382 -26.38398707 389.23369999 -26.3700242 385.62452412 C-26.35752157 381.85155728 -26.35634671 378.07858739 -26.35397339 374.30560303 C-26.34775725 367.16230624 -26.33134462 360.01907068 -26.31127441 352.87580085 C-26.28891958 344.74286056 -26.27792303 336.60991735 -26.26788354 328.47695398 C-26.2469785 311.74810927 -26.21179992 295.01932612 -26.16723633 278.29052734 C-26.85561584 278.29513631 -27.54399536 278.29974527 -28.25323486 278.3044939 C-45.02149588 278.41503047 -61.78964113 278.49771159 -78.55818176 278.5495882 C-86.66742049 278.57534374 -94.77641567 278.61044318 -102.88549805 278.66772461 C-109.95536021 278.71764123 -117.02504593 278.74983763 -124.09507942 278.76096982 C-127.83692396 278.76747474 -131.57826387 278.78270669 -135.31994629 278.81917763 C-139.50234128 278.85961166 -143.68386515 278.8604715 -147.86645508 278.8581543 C-149.10004257 278.87613068 -150.33363007 278.89410706 -151.604599 278.91262817 C-159.72696619 278.86395153 -164.77448401 277.47695226 -170.68119812 271.84767628 C-176.08278946 265.91582023 -176.46593524 259.72584358 -176.45776367 252.12329102 C-176.4644809 251.22003586 -176.47119812 250.3167807 -176.4781189 249.38615417 C-176.49706349 246.41021165 -176.50102137 243.43449511 -176.50317383 240.45849609 C-176.5096044 238.38112802 -176.51633295 236.30376084 -176.52334595 234.22639465 C-176.53531 229.87462261 -176.53902768 225.5229299 -176.5378418 221.17114258 C-176.53763871 215.60957451 -176.56493499 210.04851798 -176.59938622 204.48707104 C-176.62168305 200.19665719 -176.62567847 195.90636588 -176.62462234 191.61590004 C-176.62697433 189.56628978 -176.63577503 187.51667594 -176.65128708 185.46712303 C-176.67100244 182.59303907 -176.66508711 179.72005093 -176.65307617 176.84594727 C-176.66431519 176.0087616 -176.6755542 175.17157593 -176.68713379 174.309021 C-176.61659542 167.62739496 -175.07523155 161.38002191 -170.38788414 156.40011883 C-165.70165402 152.18657399 -161.96922889 150.03810728 -155.56109619 150.05001831 C-153.84898201 150.04589432 -153.84898201 150.04589432 -152.10227966 150.04168701 C-150.23032677 150.05247284 -150.23032677 150.05247284 -148.32055664 150.06347656 C-146.34458244 150.06303848 -146.34458244 150.06303848 -144.32868958 150.06259155 C-140.71948281 150.06201774 -137.11040898 150.0737766 -133.5012331 150.08773947 C-129.72826626 150.1002421 -125.95529637 150.10141696 -122.18231201 150.10379028 C-115.03901523 150.11000642 -107.89577966 150.12641905 -100.75250983 150.14648926 C-92.61956954 150.16884409 -84.48662633 150.17984064 -76.35366297 150.18988013 C-59.62481825 150.21078517 -42.8960351 150.24596375 -26.16723633 150.29052734 C-26.17414978 149.25795807 -26.17414978 149.25795807 -26.18120289 148.20452881 C-26.29173946 131.4362678 -26.37442058 114.66812255 -26.42629719 97.89958191 C-26.45205272 89.79034318 -26.48715216 81.681348 -26.54443359 73.57226562 C-26.59435021 66.50240347 -26.62654662 59.43271774 -26.6376788 52.36268425 C-26.64418373 48.62083971 -26.65941568 44.8794998 -26.69588661 41.13781738 C-26.73632065 36.9554224 -26.73718049 32.77389852 -26.73486328 28.59130859 C-26.76182785 26.74092735 -26.76182785 26.74092735 -26.78933716 24.85316467 C-26.74066051 16.73079748 -25.35366124 11.68327966 -19.72438526 5.77656555 C-13.79252921 0.37497422 -7.60255257 -0.00817157 0 0 Z " fill="#00B0FF" transform="translate(218.167236328125,41.70947265625)"/>
</svg>
