<svg id='Copy to Clipboard' width='512' height='512' viewBox='0 0 24 24' xmlns='http://www.w3.org/2000/svg' xmlns:xlink='http://www.w3.org/1999/xlink'><rect width='24' height='24' stroke='none' fill='#000000' opacity='0'/>


	<g transform="matrix(0.5 0 0 0.5 12 12)" >
		<g style="" >
			<g transform="matrix(1 0 0 1 0 -1)" >
				<path style="stroke: none; stroke-width: 1; stroke-dasharray: none; stroke-linecap: butt; stroke-dashoffset: 0; stroke-linejoin: miter; stroke-miterlimit: 4; fill: rgb(245,194,118); fill-rule: nonzero; opacity: 1;" transform=" translate(-20, -19)" d="M 6.364 35.5 C 5.888 35.5 5.5 35.103 5.5 34.615 L 5.5 3.385 C 5.5 2.897 5.888 2.5 6.364 2.5 L 16.54 2.5 C 16.513 2.668 16.5 2.834 16.5 3 C 16.5 4.93 18.07 6.5 20 6.5 C 21.93 6.5 23.5 4.93 23.5 3 C 23.5 2.834 23.487 2.668 23.46 2.5 L 33.636 2.5 C 34.112 2.5 34.5 2.8970000000000002 34.5 3.385 L 34.5 34.615 C 34.5 35.103 34.112 35.5 33.636 35.5 L 6.364 35.5 z" stroke-linecap="round" />
			</g>
			<g transform="matrix(1 0 0 1 0 -1)" >
				<path style="stroke: none; stroke-width: 1; stroke-dasharray: none; stroke-linecap: butt; stroke-dashoffset: 0; stroke-linejoin: miter; stroke-miterlimit: 4; fill: rgb(194,150,83); fill-rule: nonzero; opacity: 1;" transform=" translate(-20, -19)" d="M 33.636 3 C 33.837 3 34 3.173 34 3.385 L 34 34.616 C 34 34.827 33.837 35 33.636 35 L 6.364 35 C 6.163 35 6 34.827 6 34.615 L 6 3.385 C 6 3.173 6.163 3 6.364 3 L 16 3 C 16 5.2059999999999995 17.794 7 20 7 C 22.206 7 24 5.2059999999999995 24 3 L 33.636 3 M 33.636 2 L 22.816000000000003 2 C 22.928 2.314 23 2.647 23 3 C 23 4.657 21.657 6 20 6 C 18.343 6 17 4.657 17 3 C 17 2.6470000000000002 17.072 2.314 17.184 2 L 6.364 2 C 5.611 2 5 2.62 5 3.385 L 5 34.616 C 5 35.38 5.611 36 6.364 36 L 33.637 36 C 34.389 36 35 35.38 35 34.615 L 35 3.385 C 35 2.62 34.389 2 33.636 2 L 33.636 2 z" stroke-linecap="round" />
			</g>
			<g transform="matrix(1 0 0 1 0 -15)" >
				<path style="stroke: none; stroke-width: 1; stroke-dasharray: none; stroke-linecap: butt; stroke-dashoffset: 0; stroke-linejoin: miter; stroke-miterlimit: 4; fill: rgb(102,121,143); fill-rule: nonzero; opacity: 1;" transform=" translate(-20, -5)" d="M 22.289 2 C 22.514000000000003 2.515 22.578000000000003 3.116 22.388 3.747 C 22.141000000000002 4.566 21.451 5.226 20.619000000000003 5.426 C 18.97 5.821 17.5 4.582 17.5 3 C 17.5 2.644 17.577 2.307 17.711 2 L 13 2 L 13 6 C 13 7.105 13.895 8 15 8 L 25 8 C 26.105 8 27 7.105 27 6 L 27 2 L 22.289 2 z" stroke-linecap="round" />
			</g>
			<g transform="matrix(1 0 0 1 0 -17)" >
				<path style="stroke: none; stroke-width: 1; stroke-dasharray: none; stroke-linecap: butt; stroke-dashoffset: 0; stroke-linejoin: miter; stroke-miterlimit: 4; fill: rgb(102,121,143); fill-rule: nonzero; opacity: 1;" transform=" translate(-20, -3)" d="M 20 1 C 21.103 1 22 1.897 22 3 C 22 4.103 21.103 5 20 5 C 18.897 5 18 4.103 18 3 C 18 1.8970000000000002 18.897 1 20 1 M 20 0 C 18.343 0 17 1.343 17 3 C 17 4.657 18.343 6 20 6 C 21.657 6 23 4.657 23 3 C 23 1.343 21.657 0 20 0 L 20 0 z" stroke-linecap="round" />
			</g>
			<g transform="matrix(1 0 0 1 7 7)" >
				<path style="stroke: none; stroke-width: 1; stroke-dasharray: none; stroke-linecap: butt; stroke-dashoffset: 0; stroke-linejoin: miter; stroke-miterlimit: 4; fill: rgb(242,250,255); fill-rule: nonzero; opacity: 1;" transform=" translate(-27, -27)" d="M 15.5 15.5 L 38.5 15.5 L 38.5 38.5 L 15.5 38.5 z" stroke-linecap="round" />
			</g>
			<g transform="matrix(1 0 0 1 7 7)" >
				<path style="stroke: none; stroke-width: 1; stroke-dasharray: none; stroke-linecap: butt; stroke-dashoffset: 0; stroke-linejoin: miter; stroke-miterlimit: 4; fill: rgb(120,139,156); fill-rule: nonzero; opacity: 1;" transform=" translate(-27, -27)" d="M 38 16 L 38 38 L 16 38 L 16 16 L 38 16 M 39 15 L 15 15 L 15 39 L 39 39 L 39 15 L 39 15 z" stroke-linecap="round" />
			</g>
			<g transform="matrix(1 0 0 1 7 7)" >
				<path style="stroke: none; stroke-width: 1; stroke-dasharray: none; stroke-linecap: butt; stroke-dashoffset: 0; stroke-linejoin: miter; stroke-miterlimit: 4; fill: rgb(242,250,255); fill-rule: nonzero; opacity: 1;" transform=" translate(-27, -27)" d="M 34 15 L 35 15 L 35 39 L 34 39 z M 29 15 L 30 15 L 30 39 L 29 39 z M 24 15 L 25 15 L 25 39 L 24 39 z M 19 15 L 20 15 L 20 39 L 19 39 z" stroke-linecap="round" />
			</g>
			<g transform="matrix(0 1 -1 0 7 14.5)" >
				<path style="stroke: none; stroke-width: 1; stroke-dasharray: none; stroke-linecap: butt; stroke-dashoffset: 0; stroke-linejoin: miter; stroke-miterlimit: 4; fill: rgb(242,250,255); fill-rule: nonzero; opacity: 1;" transform=" translate(-27, -34.5)" d="M 26.5 22.5 L 27.5 22.5 L 27.5 46.5 L 26.5 46.5 z" stroke-linecap="round" />
			</g>
			<g transform="matrix(0 1 -1 0 7 9.5)" >
				<path style="stroke: none; stroke-width: 1; stroke-dasharray: none; stroke-linecap: butt; stroke-dashoffset: 0; stroke-linejoin: miter; stroke-miterlimit: 4; fill: rgb(242,250,255); fill-rule: nonzero; opacity: 1;" transform=" translate(-27, -29.5)" d="M 26.5 17.5 L 27.5 17.5 L 27.5 41.5 L 26.5 41.5 z" stroke-linecap="round" />
			</g>
			<g transform="matrix(0 1 -1 0 7 4.5)" >
				<path style="stroke: none; stroke-width: 1; stroke-dasharray: none; stroke-linecap: butt; stroke-dashoffset: 0; stroke-linejoin: miter; stroke-miterlimit: 4; fill: rgb(242,250,255); fill-rule: nonzero; opacity: 1;" transform=" translate(-27, -24.5)" d="M 26.5 12.5 L 27.5 12.5 L 27.5 36.5 L 26.5 36.5 z" stroke-linecap="round" />
			</g>
			<g transform="matrix(0 1 -1 0 7 -0.5)" >
				<path style="stroke: none; stroke-width: 1; stroke-dasharray: none; stroke-linecap: butt; stroke-dashoffset: 0; stroke-linejoin: miter; stroke-miterlimit: 4; fill: rgb(242,250,255); fill-rule: nonzero; opacity: 1;" transform=" translate(-27, -19.5)" d="M 26.5 7.5 L 27.5 7.5 L 27.5 31.5 L 26.5 31.5 z" stroke-linecap="round" />
			</g>
		</g>
	</g>
</svg>