<?xml version="1.0" encoding="UTF-8"?>
<svg version="1.1" xmlns="http://www.w3.org/2000/svg" width="512" height="512">
<path d="M0 0 C0.75178528 0.00215515 1.50357056 0.0043103 2.27813721 0.00653076 C13.23064337 0.05693064 23.61622123 0.46455314 34.25 3.3125 C35.00249023 3.50054199 35.75498047 3.68858398 36.53027344 3.88232422 C72.02974607 12.84633328 105.40522407 35.18518854 125.25 66.3125 C126.31154297 67.94058594 126.31154297 67.94058594 127.39453125 69.6015625 C146.94907095 100.33132433 150.44813421 133.01974041 150.3125 168.625 C150.30747539 170.92643132 150.30291419 173.2278637 150.29882812 175.52929688 C150.28789765 181.12372136 150.27123558 186.71810563 150.25 192.3125 C151.31436279 192.29155273 152.37872559 192.27060547 153.4753418 192.24902344 C157.43549066 192.17646038 161.3955811 192.13064149 165.35620117 192.09277344 C167.06821586 192.07269495 168.78016228 192.04542608 170.49194336 192.01074219 C172.95704008 191.96205599 175.4212279 191.93949427 177.88671875 191.921875 C178.64836838 191.90122986 179.41001801 191.88058472 180.19474792 191.85931396 C183.93491609 191.85774533 186.03097498 192.17196271 189.21020508 194.21191406 C192.14185947 197.23093913 192.37558371 198.82672877 192.38422108 202.91914368 C192.38867892 203.89579294 192.39313676 204.87244221 192.39772969 205.8786869 C192.39745315 207.49975129 192.39745315 207.49975129 192.39717102 209.15356445 C192.40084771 210.29569586 192.4045244 211.43782726 192.4083125 212.61456871 C192.41745061 215.79459258 192.42205153 218.97458612 192.42470181 222.15462089 C192.42860097 225.58085672 192.43817981 229.00707756 192.44691467 232.43330383 C192.46669371 240.71438252 192.47674871 248.99546246 192.48564246 257.27655888 C192.49002443 261.17637779 192.49539161 265.07619534 192.50063133 268.97601318 C192.51764772 281.94140338 192.53214054 294.90679273 192.53938007 307.87219238 C192.54128998 311.23819988 192.54321031 314.60420737 192.54516602 317.97021484 C192.54564976 318.80682349 192.5461335 319.64343213 192.5466319 320.50539255 C192.55492701 334.0491583 192.58025329 347.59283557 192.61274669 361.13656271 C192.64583709 375.04260869 192.66383076 388.94860976 192.66702431 402.85469532 C192.66918796 410.66194452 192.67791486 418.46906483 192.70348549 426.27627563 C192.72521987 432.92763463 192.73322964 439.57883347 192.72351871 446.23022395 C192.71898129 449.62197246 192.72301936 453.01312348 192.74028015 456.40487099 C192.75797639 460.08871386 192.75090267 463.77172283 192.73774719 467.45556641 C192.75420106 469.04986213 192.75420106 469.04986213 192.77098733 470.67636585 C192.67161552 482.22813617 188.1291733 492.17154533 180.14453125 500.51171875 C172.68090054 507.46150225 164.02627611 512.55440159 153.5733223 512.56976891 C152.4598232 512.5762178 151.34632411 512.58266669 150.19908261 512.589311 C148.9860593 512.5862138 147.77303599 512.5831166 146.52325439 512.57992554 C145.22661385 512.58445665 143.92997331 512.58898776 142.59404063 512.59365618 C139.00117671 512.60587676 135.40840597 512.60562683 131.81552601 512.60326743 C127.9380888 512.60285902 124.06068136 512.61390075 120.18325806 512.62338257 C112.58869582 512.63998866 104.99416463 512.64549195 97.39958575 512.64660732 C91.22513388 512.64755804 85.05069223 512.65166951 78.87624359 512.65800858 C61.36500988 512.67562037 43.85380068 512.68484761 26.34255806 512.68334763 C25.39871312 512.68326772 24.45486818 512.6831878 23.48242188 512.68310547 C22.0649228 512.68298283 22.0649228 512.68298283 20.61878738 512.68285771 C5.30668102 512.68204495 -10.00532694 512.70118006 -25.31740484 512.7293822 C-41.04516268 512.75812101 -56.77287255 512.77192193 -72.50065732 512.77019465 C-81.32840966 512.76953106 -90.15605886 512.77500948 -98.98378754 512.79655075 C-106.50059048 512.81477573 -114.01724353 512.81909914 -121.53405902 512.8055319 C-125.3672489 512.7990087 -129.20015134 512.79886132 -133.03331375 512.8162384 C-137.1941992 512.83490667 -141.35442117 512.82239775 -145.51531982 512.80697632 C-146.71942025 512.81726344 -147.92352067 512.82755057 -149.16410899 512.83814943 C-161.19144823 512.73972466 -171.22200074 508.56221865 -179.94921875 500.20703125 C-184.18286173 495.66036475 -187.48425822 491.11145297 -189.75 485.3125 C-190.26113814 484.11633859 -190.26113814 484.11633859 -190.78260231 482.89601231 C-192.13439812 477.88858157 -192.0323416 473.12175772 -192.01742554 467.95677185 C-192.02195665 466.80769492 -192.02648776 465.65861798 -192.03115618 464.47472054 C-192.04161317 461.29404389 -192.04312831 458.11350973 -192.04076743 454.93282139 C-192.04035874 451.49924489 -192.05140319 448.06570192 -192.06088257 444.63214111 C-192.07747994 437.90955153 -192.08299148 431.18699702 -192.08410732 424.46438866 C-192.08505807 419.00118244 -192.08916966 413.53798779 -192.09550858 408.07478523 C-192.11311483 392.58571109 -192.122348 377.09666464 -192.12084763 361.60758042 C-192.12076772 360.7729407 -192.1206878 359.93830097 -192.12060547 359.07836914 C-192.12052371 358.24271095 -192.12044195 357.40705276 -192.12035771 356.5460716 C-192.1195442 342.99271046 -192.13869963 329.4394603 -192.1668822 315.88613128 C-192.19559145 301.96980654 -192.20942369 288.05353598 -192.20769465 274.13718086 C-192.20703024 266.32401055 -192.21254534 258.51095669 -192.23405075 250.69781303 C-192.25223645 244.04822907 -192.25663124 237.3988144 -192.2430319 230.74921637 C-192.2364899 227.35611522 -192.23642901 223.96333911 -192.2537384 220.57026863 C-192.26909129 216.89363375 -192.25994777 213.21785982 -192.24447632 209.54124451 C-192.25476344 208.46654496 -192.26505057 207.39184542 -192.27564943 206.28457922 C-192.20826329 199.06732489 -192.20826329 199.06732489 -189.84409523 195.17320347 C-185.99344488 191.75171702 -182.60280434 192.18214716 -177.6796875 192.21484375 C-176.88345978 192.2162587 -176.08723206 192.21767365 -175.26687622 192.21913147 C-172.7195462 192.22473655 -170.17230353 192.23728986 -167.625 192.25 C-165.89974085 192.25501435 -164.17448033 192.25957737 -162.44921875 192.26367188 C-158.21611209 192.27470763 -153.98307086 192.29197564 -149.75 192.3125 C-149.75444122 191.74081589 -149.75888245 191.16913177 -149.76345825 190.5801239 C-149.80836141 184.52715607 -149.83813801 178.47423691 -149.85986328 172.42114258 C-149.86980401 170.17437818 -149.88336128 167.9276263 -149.90087891 165.6809082 C-150.03405109 148.13743155 -149.83702216 130.66974062 -145.5 113.5625 C-145.28384033 112.68891846 -145.06768066 111.81533691 -144.8449707 110.9152832 C-142.82315238 103.05794219 -140.13525073 95.69777578 -136.75 88.3125 C-136.30333984 87.33289307 -136.30333984 87.33289307 -135.84765625 86.33349609 C-128.94000976 71.36095735 -119.73209002 58.5704137 -108.75 46.3125 C-107.70972656 45.14460938 -107.70972656 45.14460938 -106.6484375 43.953125 C-95.36677806 32.0180876 -81.38518186 22.61552131 -66.75 15.3125 C-66.11803711 14.99587402 -65.48607422 14.67924805 -64.83496094 14.35302734 C-56.8236628 10.42129082 -48.62735914 7.491777 -40.0625 5 C-39.23210205 4.75741455 -38.4017041 4.5148291 -37.54614258 4.26489258 C-25.10934449 0.82259713 -12.83569702 -0.06628215 0 0 Z M-27.75 69.3125 C-29.34328125 69.85583984 -29.34328125 69.85583984 -30.96875 70.41015625 C-52.48903269 78.59119155 -68.42198834 95.65561478 -78.0234375 116.20703125 C-88.518983 140.11481502 -84.75 166.8664594 -84.75 192.3125 C-28.65 192.3125 27.45 192.3125 85.25 192.3125 C86.47231806 134.27227827 86.47231806 134.27227827 59.25 88.3125 C50.57106574 80.21377305 41.2971432 74.29549333 30.25 70.0625 C29.28960815 69.69282104 29.28960815 69.69282104 28.30981445 69.31567383 C10.56124029 62.83660442 -9.97856469 63.20857233 -27.75 69.3125 Z " fill="#FECF3D" transform="translate(255.75,-0.3125)"/>
<path d="M0 0 C0.75178528 0.00215515 1.50357056 0.0043103 2.27813721 0.00653076 C13.23064337 0.05693064 23.61622123 0.46455314 34.25 3.3125 C35.00249023 3.50054199 35.75498047 3.68858398 36.53027344 3.88232422 C72.02974607 12.84633328 105.40522407 35.18518854 125.25 66.3125 C126.31154297 67.94058594 126.31154297 67.94058594 127.39453125 69.6015625 C146.94907095 100.33132433 150.44813421 133.01974041 150.3125 168.625 C150.30747539 170.92643132 150.30291419 173.2278637 150.29882812 175.52929688 C150.28789765 181.12372136 150.27123558 186.71810563 150.25 192.3125 C151.31436279 192.29155273 152.37872559 192.27060547 153.4753418 192.24902344 C157.43549066 192.17646038 161.3955811 192.13064149 165.35620117 192.09277344 C167.06821586 192.07269495 168.78016228 192.04542608 170.49194336 192.01074219 C172.95704008 191.96205599 175.4212279 191.93949427 177.88671875 191.921875 C178.64836838 191.90122986 179.41001801 191.88058472 180.19474792 191.85931396 C183.93491609 191.85774533 186.03097498 192.17196271 189.21020508 194.21191406 C192.14185947 197.23093913 192.37558371 198.82672877 192.38422108 202.91914368 C192.38867892 203.89579294 192.39313676 204.87244221 192.39772969 205.8786869 C192.39745315 207.49975129 192.39745315 207.49975129 192.39717102 209.15356445 C192.40084771 210.29569586 192.4045244 211.43782726 192.4083125 212.61456871 C192.41745061 215.79459258 192.42205153 218.97458612 192.42470181 222.15462089 C192.42860097 225.58085672 192.43817981 229.00707756 192.44691467 232.43330383 C192.46669371 240.71438252 192.47674871 248.99546246 192.48564246 257.27655888 C192.49002443 261.17637779 192.49539161 265.07619534 192.50063133 268.97601318 C192.51764772 281.94140338 192.53214054 294.90679273 192.53938007 307.87219238 C192.54128998 311.23819988 192.54321031 314.60420737 192.54516602 317.97021484 C192.54564976 318.80682349 192.5461335 319.64343213 192.5466319 320.50539255 C192.55492701 334.0491583 192.58025329 347.59283557 192.61274669 361.13656271 C192.64583709 375.04260869 192.66383076 388.94860976 192.66702431 402.85469532 C192.66918796 410.66194452 192.67791486 418.46906483 192.70348549 426.27627563 C192.72521987 432.92763463 192.73322964 439.57883347 192.72351871 446.23022395 C192.71898129 449.62197246 192.72301936 453.01312348 192.74028015 456.40487099 C192.75797639 460.08871386 192.75090267 463.77172283 192.73774719 467.45556641 C192.75420106 469.04986213 192.75420106 469.04986213 192.77098733 470.67636585 C192.67161552 482.22813617 188.1291733 492.17154533 180.14453125 500.51171875 C172.68090054 507.46150225 164.02627611 512.55440159 153.5733223 512.56976891 C152.4598232 512.5762178 151.34632411 512.58266669 150.19908261 512.589311 C148.9860593 512.5862138 147.77303599 512.5831166 146.52325439 512.57992554 C145.22661385 512.58445665 143.92997331 512.58898776 142.59404063 512.59365618 C139.00117671 512.60587676 135.40840597 512.60562683 131.81552601 512.60326743 C127.9380888 512.60285902 124.06068136 512.61390075 120.18325806 512.62338257 C112.58869582 512.63998866 104.99416463 512.64549195 97.39958575 512.64660732 C91.22513388 512.64755804 85.05069223 512.65166951 78.87624359 512.65800858 C61.36500988 512.67562037 43.85380068 512.68484761 26.34255806 512.68334763 C25.39871312 512.68326772 24.45486818 512.6831878 23.48242188 512.68310547 C22.0649228 512.68298283 22.0649228 512.68298283 20.61878738 512.68285771 C5.30668102 512.68204495 -10.00532694 512.70118006 -25.31740484 512.7293822 C-41.04516268 512.75812101 -56.77287255 512.77192193 -72.50065732 512.77019465 C-81.32840966 512.76953106 -90.15605886 512.77500948 -98.98378754 512.79655075 C-106.50059048 512.81477573 -114.01724353 512.81909914 -121.53405902 512.8055319 C-125.3672489 512.7990087 -129.20015134 512.79886132 -133.03331375 512.8162384 C-137.1941992 512.83490667 -141.35442117 512.82239775 -145.51531982 512.80697632 C-146.71942025 512.81726344 -147.92352067 512.82755057 -149.16410899 512.83814943 C-161.19144823 512.73972466 -171.22200074 508.56221865 -179.94921875 500.20703125 C-184.18286173 495.66036475 -187.48425822 491.11145297 -189.75 485.3125 C-190.26113814 484.11633859 -190.26113814 484.11633859 -190.78260231 482.89601231 C-192.13439812 477.88858157 -192.0323416 473.12175772 -192.01742554 467.95677185 C-192.02195665 466.80769492 -192.02648776 465.65861798 -192.03115618 464.47472054 C-192.04161317 461.29404389 -192.04312831 458.11350973 -192.04076743 454.93282139 C-192.04035874 451.49924489 -192.05140319 448.06570192 -192.06088257 444.63214111 C-192.07747994 437.90955153 -192.08299148 431.18699702 -192.08410732 424.46438866 C-192.08505807 419.00118244 -192.08916966 413.53798779 -192.09550858 408.07478523 C-192.11311483 392.58571109 -192.122348 377.09666464 -192.12084763 361.60758042 C-192.12076772 360.7729407 -192.1206878 359.93830097 -192.12060547 359.07836914 C-192.12052371 358.24271095 -192.12044195 357.40705276 -192.12035771 356.5460716 C-192.1195442 342.99271046 -192.13869963 329.4394603 -192.1668822 315.88613128 C-192.19559145 301.96980654 -192.20942369 288.05353598 -192.20769465 274.13718086 C-192.20703024 266.32401055 -192.21254534 258.51095669 -192.23405075 250.69781303 C-192.25223645 244.04822907 -192.25663124 237.3988144 -192.2430319 230.74921637 C-192.2364899 227.35611522 -192.23642901 223.96333911 -192.2537384 220.57026863 C-192.26909129 216.89363375 -192.25994777 213.21785982 -192.24447632 209.54124451 C-192.25476344 208.46654496 -192.26505057 207.39184542 -192.27564943 206.28457922 C-192.20826329 199.06732489 -192.20826329 199.06732489 -189.84409523 195.17320347 C-185.99344488 191.75171702 -182.60280434 192.18214716 -177.6796875 192.21484375 C-176.88345978 192.2162587 -176.08723206 192.21767365 -175.26687622 192.21913147 C-172.7195462 192.22473655 -170.17230353 192.23728986 -167.625 192.25 C-165.89974085 192.25501435 -164.17448033 192.25957737 -162.44921875 192.26367188 C-158.21611209 192.27470763 -153.98307086 192.29197564 -149.75 192.3125 C-149.75444122 191.74081589 -149.75888245 191.16913177 -149.76345825 190.5801239 C-149.80836141 184.52715607 -149.83813801 178.47423691 -149.85986328 172.42114258 C-149.86980401 170.17437818 -149.88336128 167.9276263 -149.90087891 165.6809082 C-150.03405109 148.13743155 -149.83702216 130.66974062 -145.5 113.5625 C-145.28384033 112.68891846 -145.06768066 111.81533691 -144.8449707 110.9152832 C-142.82315238 103.05794219 -140.13525073 95.69777578 -136.75 88.3125 C-136.30333984 87.33289307 -136.30333984 87.33289307 -135.84765625 86.33349609 C-128.94000976 71.36095735 -119.73209002 58.5704137 -108.75 46.3125 C-107.70972656 45.14460938 -107.70972656 45.14460938 -106.6484375 43.953125 C-95.36677806 32.0180876 -81.38518186 22.61552131 -66.75 15.3125 C-66.11803711 14.99587402 -65.48607422 14.67924805 -64.83496094 14.35302734 C-56.8236628 10.42129082 -48.62735914 7.491777 -40.0625 5 C-39.23210205 4.75741455 -38.4017041 4.5148291 -37.54614258 4.26489258 C-25.10934449 0.82259713 -12.83569702 -0.06628215 0 0 Z M-27.75 69.3125 C-29.34328125 69.85583984 -29.34328125 69.85583984 -30.96875 70.41015625 C-52.48903269 78.59119155 -68.42198834 95.65561478 -78.0234375 116.20703125 C-88.518983 140.11481502 -84.75 166.8664594 -84.75 192.3125 C-28.65 192.3125 27.45 192.3125 85.25 192.3125 C86.47231806 134.27227827 86.47231806 134.27227827 59.25 88.3125 C50.57106574 80.21377305 41.2971432 74.29549333 30.25 70.0625 C29.28960815 69.69282104 29.28960815 69.69282104 28.30981445 69.31567383 C10.56124029 62.83660442 -9.97856469 63.20857233 -27.75 69.3125 Z M-170.75 213.3125 C-170.8325 256.2125 -170.915 299.1125 -171 343.3125 C-171.03641602 356.86570312 -171.07283203 370.41890625 -171.11035156 384.3828125 C-171.12372807 396.51611125 -171.12372807 396.51611125 -171.1317749 408.64941406 C-171.13550632 414.05996715 -171.15018422 419.47036025 -171.17230225 424.88085938 C-171.20046618 431.78051417 -171.20796844 438.67993831 -171.2022891 445.57964706 C-171.20347686 448.1129369 -171.21142093 450.64623463 -171.22686052 453.17947769 C-171.24674417 456.60057202 -171.24196517 460.02078002 -171.23101807 463.44189453 C-171.24266872 464.43384323 -171.25431938 465.42579193 -171.26632309 466.44779968 C-171.20383935 473.70859575 -169.61426621 479.04393379 -164.78515625 484.5546875 C-163.80869141 485.36292969 -163.80869141 485.36292969 -162.8125 486.1875 C-162.16410156 486.74179687 -161.51570313 487.29609375 -160.84765625 487.8671875 C-156.8128379 490.64722994 -153.244091 491.56240768 -148.37819195 491.56697559 C-146.7717809 491.57572388 -146.7717809 491.57572388 -145.13291711 491.58464891 C-143.37700359 491.57897992 -143.37700359 491.57897992 -141.58561707 491.57319641 C-140.33742245 491.57702196 -139.08922783 491.58084751 -137.80320913 491.58478898 C-134.3410376 491.59508149 -130.87896947 491.59288398 -127.41678941 491.58860838 C-123.681845 491.58614339 -119.94692563 491.59515257 -116.21199036 491.60264587 C-108.89535616 491.61540179 -101.57875865 491.61718541 -94.2621152 491.61484561 C-88.3145486 491.61306308 -82.36699314 491.6148107 -76.41942787 491.61907005 C-75.57315457 491.61966524 -74.72688126 491.62026043 -73.85496331 491.62087366 C-72.13577482 491.6220854 -70.41658634 491.62329954 -68.69739787 491.62451603 C-52.57051297 491.63539527 -36.44364898 491.63322742 -20.3167629 491.62713119 C-5.56584555 491.62196321 9.18500574 491.63321364 23.93591002 491.65222941 C39.08279942 491.67160588 54.22965756 491.67986404 69.37655944 491.67610615 C77.88007288 491.67419362 86.38353012 491.67668659 94.88703346 491.69082069 C102.12722252 491.70273313 109.36732078 491.70414104 116.60751108 491.69203053 C120.3006569 491.6861405 123.99363662 491.68504568 127.68677139 491.69703293 C131.69286802 491.70988469 135.69856913 491.69943006 139.70466614 491.6867218 C140.86858299 491.69409609 142.03249983 491.70147037 143.23168689 491.70906812 C152.17775132 491.64930509 159.01598657 490.17218539 165.77734375 483.99609375 C169.63062838 479.59087975 171.37583836 473.67207007 171.37304783 467.89845753 C171.3750387 466.99000017 171.37702957 466.08154282 171.37908077 465.14555645 C171.37616811 464.14682412 171.37325544 463.14809179 171.37025452 462.11909485 C171.37111053 461.06145432 171.37196655 460.00381378 171.37284851 458.91412354 C171.37451014 455.34157655 171.36896962 451.76907594 171.36352539 448.1965332 C171.36321922 445.60297999 171.36335227 443.0094267 171.36389065 440.41587353 C171.3644229 434.15972864 171.35979983 427.90359807 171.35338932 421.64745687 C171.34619771 414.41287937 171.34539503 407.17830692 171.34460449 399.94372559 C171.33935119 380.83748145 171.32539012 361.73124051 171.3125 342.625 C171.291875 299.951875 171.27125 257.27875 171.25 213.3125 C58.39 213.3125 -54.47 213.3125 -170.75 213.3125 Z " fill="#485358" transform="translate(255.75,-0.3125)"/>
<path d="M0 0 C112.86 0 225.72 0 342 0 C342.0928125 63.855 342.0928125 63.855 342.1875 129 C342.21481201 142.44878906 342.24212402 155.89757812 342.27026367 169.75390625 C342.28381348 186.15820312 342.28381348 186.15820312 342.28633118 193.83422852 C342.28912964 199.20308405 342.30013778 204.57184888 342.31672668 209.94067383 C342.33785042 216.78727946 342.34347615 223.63375433 342.33921683 230.48039055 C342.34010761 232.99413716 342.34606512 235.50788825 342.35764539 238.02160835 C342.37255883 241.4163433 342.3689731 244.81057587 342.36076355 248.20532227 C342.37387054 249.68157578 342.37387054 249.68157578 342.38724232 251.18765259 C342.33253049 259.60071601 340.4597678 266.20380159 334.68359375 272.52734375 C330.02164216 276.60519931 323.91968044 278.12552952 317.85194111 278.12304783 C316.78004892 278.12503888 315.70815673 278.12702993 314.60378295 278.12908131 C313.4218913 278.12616847 312.23999964 278.12325563 311.02229309 278.12025452 C309.14409765 278.12153615 309.14409765 278.12153615 307.22795886 278.12284368 C303.74584382 278.12508519 300.26375941 278.12107204 296.78164828 278.11606562 C293.02910971 278.11175639 289.27657294 278.11320788 285.52403259 278.1139679 C279.02030336 278.11449283 272.51658415 278.11134921 266.01285744 278.10573006 C256.60950336 278.09761094 247.20615413 278.09499941 237.80279692 278.09374207 C222.54732085 278.0915522 207.29185012 278.08489387 192.03637695 278.07543945 C177.21508816 278.06626366 162.39380082 278.05918364 147.57250977 278.05493164 C146.65927729 278.05466892 145.74604481 278.05440619 144.80513863 278.05413551 C140.22382473 278.05283049 135.64251083 278.05156678 131.06119692 278.05032361 C93.04079421 278.03995302 55.02039746 278.02233646 17 278 C17 277.67 17 277.34 17 277 C17.56941321 276.99902319 18.13882641 276.99804638 18.72549456 276.99703997 C52.46167626 276.93878802 86.19778546 276.86500651 119.93388633 276.77101372 C123.98318628 276.75974534 128.03248658 276.74860692 132.08178711 276.73754883 C132.88794155 276.73534514 133.69409598 276.73314146 134.52467934 276.730871 C147.58367491 276.6954833 160.64267042 276.67062749 173.70169618 276.64965298 C187.09805576 276.62790265 200.49435304 276.59485956 213.89065963 276.55129844 C222.15918105 276.52476845 230.42762481 276.50708302 238.6961867 276.50065396 C244.3636201 276.49540418 250.03095572 276.47920108 255.69833674 276.45433434 C258.96982007 276.4403051 262.24109312 276.4327754 265.51261139 276.43499184 C269.05810847 276.43663591 272.60306071 276.42001866 276.14848328 276.39872742 C277.18447511 276.40357499 278.22046694 276.40842257 279.28785247 276.41341704 C286.1361363 276.35845415 286.1361363 276.35845415 292 273 C293.58803519 271.1790455 293.58803519 271.1790455 294.75 269.125 C295.15734375 268.46757812 295.5646875 267.81015625 295.984375 267.1328125 C297.79273357 263.33525951 298.12456356 259.50387409 298.1386652 255.33986187 C298.14414057 254.42742277 298.14961594 253.51498367 298.15525723 252.57489491 C298.15623441 251.58198791 298.15721159 250.58908091 298.15821838 249.56608582 C298.16561287 247.97705696 298.16561287 247.97705696 298.17315674 246.35592651 C298.18855148 242.78961348 298.19689877 239.22331825 298.20532227 235.65698242 C298.21503657 233.06318409 298.22518198 230.46938733 298.23572445 227.87559223 C298.26037366 221.62646371 298.27997432 215.37732951 298.29780969 209.12817823 C298.31865875 201.89944113 298.34578952 194.67073313 298.3729248 187.4420166 C298.44146243 168.35719618 298.50145752 149.27234586 298.5625 130.1875 C298.706875 87.555625 298.85125 44.92375 299 1 C200.66 1 102.32 1 1 1 C1 86.8 1 172.6 1 261 C0.67 261 0.34 261 0 261 C0 174.87 0 88.74 0 0 Z " fill="#E2B62F" transform="translate(85,213)"/>
<path d="M0 0 C13.86 0 27.72 0 42 0 C42.00546844 4.8968866 42.00546844 4.8968866 42.01104736 9.8927002 C42.04633121 39.83626961 42.10136786 69.77974037 42.17792095 99.72323218 C42.18793829 103.64849556 42.19778244 107.57375935 42.20751953 111.49902344 C42.2094609 112.28046602 42.21140228 113.06190861 42.21340248 113.86703128 C42.24441548 126.51661479 42.26140117 139.16618016 42.27319422 151.81579453 C42.28560941 164.79746734 42.31311911 177.77904503 42.35461307 190.76065779 C42.37973798 198.76970239 42.39311802 206.7785892 42.39142957 214.78767377 C42.39139627 220.93120451 42.4123739 227.0745009 42.44116783 233.21796036 C42.4496887 235.73662572 42.45140201 238.25532471 42.44580269 240.77399826 C42.43917461 244.21349448 42.45705672 247.65203105 42.48101807 251.09143066 C42.47325765 252.08755639 42.46549723 253.08368211 42.45750165 254.10999346 C42.54042256 260.83617217 43.62058798 266.68458243 48.58879304 271.55870676 C50.02381546 272.749768 51.50806623 273.88104967 53 275 C53 275.33 53 275.66 53 276 C47.41330092 276.09914961 41.82711814 276.17160105 36.23974609 276.21972656 C34.34056675 276.23979629 32.44144885 276.26705851 30.54248047 276.30175781 C27.80681161 276.35048109 25.07196229 276.37301507 22.3359375 276.390625 C21.49195404 276.41127014 20.64797058 276.43191528 19.77841187 276.45318604 C13.38350387 276.45559997 9.75256265 274.73525094 5.13671875 270.1484375 C4.65847656 269.56320312 4.18023437 268.97796875 3.6875 268.375 C3.19636719 267.78460938 2.70523438 267.19421875 2.19921875 266.5859375 C0.10467409 263.81595336 -0.12467184 262.06020995 -0.12304783 258.64653587 C-0.12503888 257.72642074 -0.12702993 256.80630561 -0.12908131 255.8583082 C-0.12616847 254.84081448 -0.12325563 253.82332076 -0.12025452 252.7749939 C-0.12110894 251.69931078 -0.12196337 250.62362766 -0.12284368 249.51534808 C-0.12449949 245.88700583 -0.11897544 242.25870913 -0.11352539 238.63037109 C-0.11324351 236.03897604 -0.11340126 233.44758092 -0.1139679 230.85618591 C-0.11449301 225.26478981 -0.11134754 219.67340535 -0.10573006 214.08201218 C-0.09761333 205.99773287 -0.09499966 197.9134592 -0.09374207 189.82917626 C-0.09155182 176.71391379 -0.08489247 163.59865753 -0.07543945 150.48339844 C-0.06626463 137.74088573 -0.05918414 124.99837471 -0.05493164 112.25585938 C-0.05466892 111.47080499 -0.05440619 110.6857506 -0.05413551 109.87690668 C-0.0528305 105.93863722 -0.05156678 102.00036775 -0.05032361 98.06209826 C-0.03995184 65.37472747 -0.02205963 32.687365 0 0 Z " fill="#FEDB6D" transform="translate(86,214)"/>
<path d="M0 0 C2.02284065 -0.00217822 4.04512693 -0.02037261 6.06787109 -0.03930664 C18.16854724 -0.05708432 29.44208556 1.27988275 40.91552734 5.18530273 C41.80296631 5.48581543 42.69040527 5.78632813 43.60473633 6.09594727 C76.14287011 17.58950255 102.29544093 41.46103623 117.79052734 72.18530273 C129.18176759 96.54228594 130.12269646 120.46847138 129.91552734 146.93530273 C129.90546364 149.20482997 129.89634387 151.4743616 129.88818359 153.74389648 C129.86819574 159.2245672 129.82900336 164.70460839 129.79052734 170.18530273 C122.86052734 170.18530273 115.93052734 170.18530273 108.79052734 170.18530273 C108.75314453 166.79635742 108.71576172 163.40741211 108.67724609 159.91577148 C108.63079168 156.56602186 108.57964585 153.21637357 108.52807617 149.86669922 C108.49519849 147.57151657 108.46705639 145.27626027 108.4440918 142.98095703 C108.12637428 112.04067872 103.94936764 83.21108514 82.79052734 59.18530273 C81.77732422 57.9574707 81.77732422 57.9574707 80.74365234 56.70483398 C72.13675468 46.57445262 61.72446244 39.00331514 49.79052734 33.18530273 C48.94361328 32.75733398 48.09669922 32.32936523 47.22412109 31.88842773 C41.8428718 29.29003016 36.34625817 27.25995003 30.66552734 25.43530273 C29.69836792 25.11903931 29.69836792 25.11903931 28.71166992 24.79638672 C19.73688703 22.0259152 10.68067459 22.00341166 1.35302734 21.99780273 C0.28503906 21.98555664 -0.78294922 21.97331055 -1.88330078 21.96069336 C-8.5885078 21.94840526 -14.69790904 22.61433359 -21.20947266 24.18530273 C-22.42892578 24.44569336 -23.64837891 24.70608398 -24.90478516 24.97436523 C-52.14584862 31.61398662 -74.77629977 49.43845775 -89.3984375 73.11010742 C-94.36291047 81.46750407 -97.6537735 89.78488455 -100.20947266 99.18530273 C-100.53334961 100.10617676 -100.85722656 101.02705078 -101.19091797 101.97583008 C-105.63354796 115.974587 -104.63708624 131.62209754 -104.83447266 146.12280273 C-104.87273798 148.4633107 -104.91179437 150.80380586 -104.95166016 153.14428711 C-105.04817439 158.82455178 -105.12847361 164.50471193 -105.20947266 170.18530273 C-112.13947266 170.18530273 -119.06947266 170.18530273 -126.20947266 170.18530273 C-126.25584574 163.4122561 -126.29552898 156.63977922 -126.31933594 149.86669922 C-126.32927979 147.57143264 -126.34283962 145.27617834 -126.36035156 142.98095703 C-126.63142346 106.48989565 -126.63142346 106.48989565 -121.58447266 90.99780273 C-121.32794922 90.17812012 -121.07142578 89.3584375 -120.80712891 88.51391602 C-118.11690204 80.28864298 -114.40433842 72.73436278 -110.20947266 65.18530273 C-109.71705078 64.27651367 -109.22462891 63.36772461 -108.71728516 62.43139648 C-96.65407923 41.20151714 -78.14386542 23.85608841 -56.20947266 13.18530273 C-55.14857422 12.66194336 -54.08767578 12.13858398 -52.99462891 11.59936523 C-46.50862415 8.49637579 -40.15221263 6.02276323 -33.20947266 4.18530273 C-32.30326172 3.9184668 -31.39705078 3.65163086 -30.46337891 3.37670898 C-29.06925781 2.97258789 -29.06925781 2.97258789 -27.64697266 2.56030273 C-26.82068359 2.32053711 -25.99439453 2.08077148 -25.14306641 1.83374023 C-16.82700535 -0.00443039 -8.48123853 -0.00101816 0 0 Z " fill="#F2F2F2" transform="translate(254.20947265625,21.814697265625)"/>
<path d="M0 0 C7.03208149 4.50523326 12.02919167 9.66641336 16 17 C16.4125 17.68964844 16.825 18.37929688 17.25 19.08984375 C21.91265286 28.3018211 21.50226667 40.79816459 19.1171875 50.64453125 C16.5000799 57.3952823 12.23731222 65.58288972 5.75390625 69.28125 C3.63291381 70.96243366 3.63291381 70.96243366 3.90625 74.18359375 C4.08349214 75.60429485 4.28370794 77.02221765 4.5 78.4375 C4.71722341 80.13397695 4.9332581 81.83060632 5.1484375 83.52734375 C5.28088867 84.51718262 5.41333984 85.50702148 5.54980469 86.52685547 C6.39390771 93.03889975 7.11967825 99.56468697 7.85180664 106.09011841 C8.12030989 108.45862777 8.39837616 110.82586475 8.67773438 113.19311523 C11.2364416 135.26898175 11.2364416 135.26898175 7.8125 140.0625 C1.8820096 144.14794894 -3.07106474 144.31926721 -10.0859375 144.3359375 C-11.06108307 144.3425943 -12.03622864 144.3492511 -13.04092407 144.35610962 C-15.10018025 144.36621703 -17.15946905 144.37092723 -19.21875 144.37060547 C-22.35732397 144.37497539 -25.4944874 144.41130676 -28.6328125 144.44921875 C-30.63801605 144.45508807 -32.64322624 144.45905669 -34.6484375 144.4609375 C-35.5809433 144.47530853 -36.5134491 144.48967957 -37.47421265 144.50448608 C-43.50441649 144.4625243 -47.08401031 143.56346785 -52 140 C-56.41845194 133.37232208 -53.84469021 123.05372753 -52.94140625 115.43359375 C-52.8327977 114.47405289 -52.72418915 113.51451202 -52.61228943 112.52589417 C-52.26811638 109.49573828 -51.91557982 106.46662962 -51.5625 103.4375 C-51.21492255 100.40460257 -50.86906581 97.37151253 -50.52342224 94.33839417 C-50.30902967 92.4626784 -50.09320049 90.58712603 -49.87562561 88.71177673 C-49.67678638 86.99295099 -49.48320918 85.27350662 -49.29544067 83.55343628 C-49.08984689 81.77652923 -48.8543942 80.00292849 -48.59591675 78.23294067 C-48.4765274 77.34275238 -48.35713806 76.45256409 -48.23413086 75.53540039 C-48.11653915 74.73622696 -47.99894745 73.93705353 -47.87779236 73.11366272 C-47.79712244 70.90719386 -47.79712244 70.90719386 -49.39430237 69.30296326 C-50.57952814 68.37723024 -51.79129386 67.48504386 -53.01953125 66.6171875 C-59.0024145 61.7317562 -63.27539533 52.30076187 -64.31738281 44.67822266 C-64.47328635 42.19332147 -64.51911088 39.73966985 -64.5 37.25 C-64.49355469 36.37037598 -64.48710937 35.49075195 -64.48046875 34.58447266 C-64.14606795 22.62304408 -59.38647301 13.47730124 -51 5 C-48.16085233 2.62208571 -45.25410676 0.75897662 -42 -1 C-41.29875 -1.4125 -40.5975 -1.825 -39.875 -2.25 C-27.84192992 -8.26653504 -11.39926134 -6.39849547 0 0 Z " fill="#465054" transform="translate(278,283)"/>
<path d="M0 0 C4.86549375 4.07343663 8.41399465 8.45391633 9.45703125 14.765625 C9.88462745 22.52202117 8.16026145 28.13844541 3 34 C0.72575698 35.76758587 -1.5291759 37.25257031 -4.046875 38.6484375 C-6.36819338 40.25478982 -6.93956904 41.40833639 -8 44 C-8.70881317 50.13798895 -7.71604973 56.44388251 -6.90625 62.53125 C-6.73977966 63.84518738 -6.73977966 63.84518738 -6.56994629 65.18566895 C-6.21859538 67.95782142 -5.86021724 70.7289866 -5.5 73.5 C-5.02480911 77.15546176 -4.55707432 80.81176731 -4.09375 84.46875 C-3.9843811 85.29088989 -3.87501221 86.11302979 -3.7623291 86.96008301 C-3.66222534 87.75120483 -3.56212158 88.54232666 -3.45898438 89.35742188 C-3.32574768 90.37926575 -3.32574768 90.37926575 -3.18981934 91.42175293 C-2.90640489 95.27126838 -3 99.14006568 -3 103 C-8.94 103 -14.88 103 -21 103 C-20.2816658 90.78075718 -19.03942907 78.67153937 -17.65405273 66.51220703 C-17.37947462 64.0918165 -17.10950951 61.67094198 -16.83984375 59.25 C-16.75548569 58.52385498 -16.67112762 57.79770996 -16.58421326 57.04956055 C-15.53251974 49.12273053 -15.53251974 49.12273053 -17 41.4375 C-19.37485743 38.5431425 -22.03553639 36.64544185 -25.06640625 34.4765625 C-28.73013192 31.67880835 -31.22577187 28.22039797 -33 24 C-33.7809814 17.37687198 -33.35464204 11.78386559 -30 6 C-21.78907085 -3.26361237 -11.37454003 -6.4678757 0 0 Z " fill="#676F78" transform="translate(268,302)"/>
</svg>
