<?xml version="1.0" encoding="UTF-8"?>
<svg version="1.1" xmlns="http://www.w3.org/2000/svg" width="80" height="80">
<path d="M0 0 C1.85129819 0.62453632 3.70837272 1.2321623 5.5703125 1.82421875 C7.42249059 2.44347432 9.27394542 3.06489413 11.125 3.6875 C14.38375 4.780625 17.6425 5.87375 21 7 C21 20.53 21 34.06 21 48 C14.1009375 50.8153125 14.1009375 50.8153125 7.0625 53.6875 C5.63043213 54.28908936 4.19836426 54.89067871 2.72290039 55.51049805 C-7.88977949 59.68317549 -7.88977949 59.68317549 -12.71875 58.09375 C-14.156922 57.41897908 -15.58356909 56.71928991 -17 56 C-18.88992152 55.29923881 -20.78768299 54.61938112 -22.69140625 53.95703125 C-24.64897377 53.24365735 -26.60590719 52.52854292 -28.5625 51.8125 C-32.006875 50.554375 -35.45125 49.29625 -39 48 C-39 34.47 -39 20.94 -39 7 C-34.42125 5.288125 -29.8425 3.57625 -25.125 1.8125 C-23.70203613 1.26311768 -22.27907227 0.71373535 -20.81298828 0.14770508 C-12.87882724 -2.6990759 -7.87416203 -3.51487824 0 0 Z M-15.984375 2.53125 C-16.91894531 2.84707031 -17.85351562 3.16289062 -18.81640625 3.48828125 C-19.78449219 3.82214844 -20.75257812 4.15601563 -21.75 4.5 C-22.73355469 4.83386719 -23.71710937 5.16773438 -24.73046875 5.51171875 C-27.15553614 6.33577077 -29.57855718 7.16536963 -32 8 C-32 9.32 -32 10.64 -32 12 C-33.65 11.67 -35.3 11.34 -37 11 C-37 22.22 -37 33.44 -37 45 C-28.42 48.3 -19.84 51.6 -11 55 C-10.67 54.34 -10.34 53.68 -10 53 C-9.34 53 -8.68 53 -8 53 C-7.67 53.66 -7.34 54.32 -7 55 C5.87 50.05 5.87 50.05 19 45 C19 33.78 19 22.56 19 11 C17.68 11.33 16.36 11.66 15 12 C14.92885986 11.37963867 14.85771973 10.75927734 14.78442383 10.12011719 C14.19870796 7.82921129 14.19870796 7.82921129 12.0222168 6.90332031 C11.17312744 6.63100586 10.32403809 6.35869141 9.44921875 6.078125 C8.52302734 5.77519531 7.59683594 5.47226562 6.64257812 5.16015625 C5.66740234 4.85980469 4.69222656 4.55945313 3.6875 4.25 C2.72392578 3.93417969 1.76035156 3.61835938 0.76757812 3.29296875 C-5.38413713 1.32339671 -9.70343287 0.38653805 -15.984375 2.53125 Z " fill="#000000" transform="translate(49,13)"/>
<path d="M0 0 C1.91015625 0.23046875 1.91015625 0.23046875 3.91015625 2.23046875 C3.37444196 5.76618304 3.37444196 5.76618304 1.91015625 7.23046875 C0.09765625 7.36328125 0.09765625 7.36328125 -2.08984375 7.35546875 C-2.81171875 7.35804687 -3.53359375 7.360625 -4.27734375 7.36328125 C-6.08984375 7.23046875 -6.08984375 7.23046875 -7.08984375 6.23046875 C-7.21484375 3.73046875 -7.21484375 3.73046875 -7.08984375 1.23046875 C-5.19495423 -0.66442077 -2.51845229 0.05027763 0 0 Z " fill="#000000" transform="translate(42.08984375,17.76953125)"/>
<path d="M0 0 C1.67542976 0.28604898 3.34385343 0.61781233 5 1 C5 3.31 5 5.62 5 8 C3.34385343 8.38218767 1.67542976 8.71395102 0 9 C-1 8 -1 8 -1.125 4.5 C-1 1 -1 1 0 0 Z " fill="#000000" transform="translate(47,52)"/>
<path d="M0 0 C1.67542976 0.28604898 3.34385343 0.61781233 5 1 C5 3.31 5 5.62 5 8 C3.34385343 8.38218767 1.67542976 8.71395102 0 9 C-1 8 -1 8 -1.125 4.5 C-1 1 -1 1 0 0 Z " fill="#000000" transform="translate(29,52)"/>
<path d="M0 0 C1.67542976 0.28604898 3.34385343 0.61781233 5 1 C5 3.31 5 5.62 5 8 C3.34385343 8.38218767 1.67542976 8.71395102 0 9 C-1 8 -1 8 -1.125 4.5 C-1 1 -1 1 0 0 Z " fill="#000000" transform="translate(59,48)"/>
<path d="M0 0 C1.67542976 0.28604898 3.34385343 0.61781233 5 1 C5 3.31 5 5.62 5 8 C3.34385343 8.38218767 1.67542976 8.71395102 0 9 C-1 8 -1 8 -1.125 4.5 C-1 1 -1 1 0 0 Z " fill="#000000" transform="translate(47,35)"/>
<path d="M0 0 C1.67542976 0.28604898 3.34385343 0.61781233 5 1 C5 3.31 5 5.62 5 8 C3.34385343 8.38218767 1.67542976 8.71395102 0 9 C-1 8 -1 8 -1.125 4.5 C-1 1 -1 1 0 0 Z " fill="#000000" transform="translate(59,31)"/>
<path d="M0 0 C1.67542976 0.28604898 3.34385343 0.61781233 5 1 C5 3.31 5 5.62 5 8 C3.34385343 8.38218767 1.67542976 8.71395102 0 9 C-1 8 -1 8 -1.125 4.5 C-1 1 -1 1 0 0 Z " fill="#000000" transform="translate(17,31)"/>
<path d="M0 0 C2.64 0 5.28 0 8 0 C7.67 0.99 7.34 1.98 7 3 C6.34 3 5.68 3 5 3 C5 3.99 5 4.98 5 6 C4.34 6 3.68 6 3 6 C3 5.01 3 4.02 3 3 C2.01 2.67 1.02 2.34 0 2 C0 1.34 0 0.68 0 0 Z " fill="#000000" transform="translate(36,30)"/>
<path d="M0 0 C0.99 0 1.98 0 3 0 C3 0.99 3 1.98 3 3 C2.01 3 1.02 3 0 3 C0 2.01 0 1.02 0 0 Z " fill="#000000" transform="translate(32,28)"/>
<path d="M0 0 C0.99 0 1.98 0 3 0 C3 0.99 3 1.98 3 3 C2.01 3 1.02 3 0 3 C0 2.01 0 1.02 0 0 Z " fill="#000000" transform="translate(49,27)"/>
<path d="M0 0 C0.99 0 1.98 0 3 0 C3 0.99 3 1.98 3 3 C2.01 3 1.02 3 0 3 C0 2.01 0 1.02 0 0 Z " fill="#000000" transform="translate(25,26)"/>
<path d="M0 0 C0.66 0 1.32 0 2 0 C2 0.99 2 1.98 2 3 C1.01 3 0.02 3 -1 3 C-0.67 2.01 -0.34 1.02 0 0 Z " fill="#000000" transform="translate(46,28)"/>
<path d="M0 0 C0.99 0.33 1.98 0.66 3 1 C3 1.66 3 2.32 3 3 C2.01 3 1.02 3 0 3 C0 2.01 0 1.02 0 0 Z " fill="#000000" transform="translate(60,23)"/>
<path d="M0 0 C0.66 0.33 1.32 0.66 2 1 C2 1.66 2 2.32 2 3 C1.01 3 0.02 3 -1 3 C-0.67 2.01 -0.34 1.02 0 0 Z " fill="#000000" transform="translate(57,24)"/>
<path d="M0 0 C0.66 0.33 1.32 0.66 2 1 C2 1.66 2 2.32 2 3 C1.01 3 0.02 3 -1 3 C-0.67 2.01 -0.34 1.02 0 0 Z " fill="#000000" transform="translate(19,23)"/>
<path d="M0 0 C0.66 0 1.32 0 2 0 C2 0.99 2 1.98 2 3 C1.34 3 0.68 3 0 3 C0 2.01 0 1.02 0 0 Z " fill="#000000" transform="translate(29,27)"/>
<path d="M0 0 C0.66 0 1.32 0 2 0 C2 0.99 2 1.98 2 3 C1.34 3 0.68 3 0 3 C0 2.01 0 1.02 0 0 Z " fill="#000000" transform="translate(53,26)"/>
<path d="M0 0 C0.66 0 1.32 0 2 0 C2 0.99 2 1.98 2 3 C1.34 3 0.68 3 0 3 C0 2.01 0 1.02 0 0 Z " fill="#000000" transform="translate(22,25)"/>
<path d="M0 0 C0.66 0 1.32 0 2 0 C2 0.66 2 1.32 2 2 C1.34 2 0.68 2 0 2 C0 1.34 0 0.68 0 0 Z " fill="#000000" transform="translate(39,62)"/>
<path d="M0 0 C0.66 0 1.32 0 2 0 C2 0.66 2 1.32 2 2 C1.34 2 0.68 2 0 2 C0 1.34 0 0.68 0 0 Z " fill="#000000" transform="translate(39,58)"/>
<path d="M0 0 C0.66 0 1.32 0 2 0 C2 0.66 2 1.32 2 2 C1.34 2 0.68 2 0 2 C0 1.34 0 0.68 0 0 Z " fill="#000000" transform="translate(39,54)"/>
<path d="M0 0 C0.66 0 1.32 0 2 0 C2 0.66 2 1.32 2 2 C1.34 2 0.68 2 0 2 C0 1.34 0 0.68 0 0 Z " fill="#000000" transform="translate(39,50)"/>
<path d="M0 0 C0.66 0 1.32 0 2 0 C2 0.66 2 1.32 2 2 C1.34 2 0.68 2 0 2 C0 1.34 0 0.68 0 0 Z " fill="#000000" transform="translate(39,46)"/>
<path d="M0 0 C0.66 0 1.32 0 2 0 C2 0.66 2 1.32 2 2 C1.34 2 0.68 2 0 2 C0 1.34 0 0.68 0 0 Z " fill="#000000" transform="translate(39,42)"/>
<path d="M0 0 C0.66 0 1.32 0 2 0 C2 0.66 2 1.32 2 2 C1.34 2 0.68 2 0 2 C0 1.34 0 0.68 0 0 Z " fill="#000000" transform="translate(39,38)"/>
</svg>
