<?xml version="1.0" encoding="UTF-8"?>
<svg version="1.1" xmlns="http://www.w3.org/2000/svg" width="512" height="512">
<path d="M0 0 C0.65355469 0.53367188 1.30710937 1.06734375 1.98046875 1.6171875 C6.5203177 5.3252319 10.28204561 9.47836658 14 14 C15.12728516 15.31871094 15.12728516 15.31871094 16.27734375 16.6640625 C33.86842187 38.17353243 43.64194 65.32952758 45 93 C45.04125 93.81984375 45.0825 94.6396875 45.125 95.484375 C45.99413544 131.33621202 32.08851674 165.00118698 7.62133789 190.90014648 C-4.25155932 203.03327158 -19.71364389 214.57121463 -36 220 C-35.99805177 221.45002159 -35.99805177 221.45002159 -35.99606419 222.92933655 C-35.96605242 246.45736969 -35.9762254 269.98512438 -36.02846622 293.51312256 C-36.05280059 304.89115589 -36.06410623 316.26892294 -36.04467773 327.64697266 C-36.02777573 337.56481013 -36.03538306 347.48227513 -36.07234758 357.40006351 C-36.09106421 362.65096325 -36.09755755 367.90123313 -36.07469368 373.15213013 C-36.05355008 378.0969265 -36.06523514 383.04057012 -36.10184479 387.98526573 C-36.10952348 389.79763439 -36.10532003 391.61009941 -36.08818626 393.42240334 C-35.95379733 408.81968951 -35.95379733 408.81968951 -40.29367065 413.86732483 C-41.49798325 414.94730485 -42.73061538 415.99730944 -44 417 C-44.74053116 417.79131821 -45.48106232 418.58263641 -46.24403381 419.39793396 C-47.20617043 420.37936119 -47.20617043 420.37936119 -48.18774414 421.38061523 C-48.92863785 422.13757187 -49.66953156 422.8945285 -50.43287659 423.67442322 C-53.76204971 427.04873138 -57.09362734 430.42054867 -60.43383789 433.78393555 C-62.19344005 435.56020711 -63.94764404 437.34184171 -65.6965332 439.12866211 C-68.23490875 441.7216468 -70.78920236 444.29793655 -73.34765625 446.87109375 C-74.12593277 447.67203964 -74.90420929 448.47298553 -75.70606995 449.29820251 C-78.68829133 452.268903 -81.22379009 454.63099648 -85.04077148 456.44555664 C-89.94179707 455.70763306 -92.59909545 452.42418141 -96 449 C-96.71276093 448.30997894 -97.42552185 447.61995789 -98.15988159 446.9090271 C-100.48077479 444.65134777 -102.77204201 442.36665337 -105.05859375 440.07421875 C-105.8883522 439.24541702 -106.71811066 438.4166153 -107.57301331 437.56269836 C-109.31121573 435.82517205 -111.04817362 434.08639989 -112.78393555 432.34643555 C-115.45052182 429.67445182 -118.12245688 427.00789944 -120.79492188 424.34179688 C-122.48730026 422.64875841 -124.17936881 420.95541015 -125.87109375 419.26171875 C-126.67203964 418.46279709 -127.47298553 417.66387543 -128.29820251 416.84074402 C-129.03309402 416.10270035 -129.76798553 415.36465668 -130.52514648 414.60424805 C-131.17386215 413.95473679 -131.82257782 413.30522552 -132.49095154 412.6360321 C-136.43242839 408.36288725 -135.37703339 402.39840623 -135.45996094 396.8984375 C-135.49944839 394.90287664 -135.58146078 392.90830405 -135.6640625 390.9140625 C-135.81811587 380.04229622 -135.81811587 380.04229622 -132.0625 375.64453125 C-130.73769426 374.39773438 -129.38099839 373.18425341 -128 372 C-126.44285103 370.49088647 -124.89099051 368.97630192 -123.34375 367.45703125 C-120.89876357 365.10531947 -118.44748347 362.76342785 -115.96875 360.44726562 C-115.185 359.68736328 -114.40125 358.92746094 -113.59375 358.14453125 C-112.52157227 357.12903198 -112.52157227 357.12903198 -111.42773438 356.09301758 C-109.77198019 354.08460111 -109.77198019 354.08460111 -109.98657227 351.54760742 C-111.29469545 348.25917924 -113.06129326 346.534618 -115.62109375 344.09375 C-116.55630859 343.18496094 -117.49152344 342.27617187 -118.45507812 341.33984375 C-119.44829316 340.39225806 -120.44244357 339.44565187 -121.4375 338.5 C-123.38297871 336.64446909 -125.3166162 334.7786267 -127.24609375 332.90625 C-128.10904053 332.08447266 -128.9719873 331.26269531 -129.86108398 330.41601562 C-132.9446409 326.93297953 -133.87492668 324.14650544 -134.375 319.5625 C-133.37016166 310.01653579 -123.39127169 303.40867988 -116.82617188 297.25585938 C-115.93865234 296.39669922 -115.05113281 295.53753906 -114.13671875 294.65234375 C-113.31905029 293.87882568 -112.50138184 293.10530762 -111.65893555 292.30834961 C-109.77642661 290.1417628 -109.77642661 290.1417628 -109.9230957 287.54980469 C-111.33942422 284.19633948 -113.50216694 282.01780143 -116.09375 279.55078125 C-116.60047241 279.0520903 -117.10719482 278.55339935 -117.62927246 278.03959656 C-119.24363854 276.45414278 -120.8710637 274.88296783 -122.5 273.3125 C-124.12623661 271.72878095 -125.74962862 270.14224553 -127.37072754 268.55326843 C-128.37880447 267.5668793 -129.39034379 266.58401383 -130.40563965 265.60505676 C-135.25205781 260.89630395 -135.18956659 257.61679574 -135.31640625 251.0546875 C-135.33718735 250.1696756 -135.35796844 249.2846637 -135.37937927 248.37283325 C-135.44486598 245.54030259 -135.50375562 242.70767775 -135.5625 239.875 C-135.60568606 237.95702143 -135.64930037 236.03905246 -135.69335938 234.12109375 C-135.80054647 229.41415949 -135.9018164 224.70713033 -136 220 C-137.08684082 219.46310547 -138.17368164 218.92621094 -139.29345703 218.37304688 C-140.73996942 217.65506992 -142.18641785 216.93696412 -143.6328125 216.21875 C-144.70366089 215.69039551 -144.70366089 215.69039551 -145.79614258 215.15136719 C-177.56235073 199.3501817 -199.14870333 172.40362205 -210.875 139.3125 C-214.35169349 128.19906944 -216.42812066 116.63417024 -217 105 C-217.061875 103.78763672 -217.061875 103.78763672 -217.125 102.55078125 C-217.66323482 80.58407275 -212.59128731 59.65568746 -203 40 C-202.52820313 39.02804688 -202.05640625 38.05609375 -201.5703125 37.0546875 C-196.04754197 26.35236947 -188.93006596 16.11612765 -180 8 C-179.236875 7.21625 -178.47375 6.4325 -177.6875 5.625 C-176.800625 4.75875 -175.91375 3.8925 -175 3 C-174.32710937 2.34257813 -173.65421875 1.68515625 -172.9609375 1.0078125 C-125.92024781 -43.27479115 -47.80227375 -42.2588168 0 0 Z M-134 35 C-140.92331942 44.62401083 -143.0065184 53.18321256 -142 65 C-139.72281905 75.88156264 -131.11667916 84.08516238 -122.4296875 90.47265625 C-107.14767764 100.07919299 -88.22676159 102.18081859 -70.75 98.8125 C-60.06122055 96.19806589 -51.23839691 92.34947547 -43 85 C-42.36191406 84.45472656 -41.72382813 83.90945312 -41.06640625 83.34765625 C-35.12044634 77.91317676 -30.484856 70.2018122 -29.7265625 62.06640625 C-29.40885142 51.10537397 -31.59812033 42.74699128 -38.625 34.1875 C-49.25784459 23.17633323 -64.89747477 16.33320105 -80.1640625 15.6640625 C-100.31192447 15.32914936 -119.91388432 19.18151928 -134 35 Z " fill="#FE9900" transform="translate(342,44)"/>
</svg>
