<?xml version="1.0" encoding="UTF-8"?>
<svg version="1.1" xmlns="http://www.w3.org/2000/svg" width="512" height="512">
<path d="M0 0 C3.66267986 2.5638759 5.03009874 5.7611774 6.14453125 9.890625 C5.94088914 16.81445661 0.79804925 22.68931958 -3.046875 28.0859375 C-8.91220388 36.50778119 -14.21511023 45.02934941 -18.921875 54.1484375 C-19.29795898 54.87466309 -19.67404297 55.60088867 -20.06152344 56.34912109 C-35.10928576 85.79505667 -42.38611946 117.95169677 -42.296875 150.9609375 C-42.29556076 152.16224304 -42.29556076 152.16224304 -42.29421997 153.38781738 C-42.1312907 198.92006609 -27.78778987 243.89478906 0.078125 280.1484375 C0.76648438 281.04820312 1.45484375 281.94796875 2.1640625 282.875 C14.38293262 298.47458518 28.16423122 312.36460172 44.078125 324.1484375 C44.90570313 324.77105469 45.73328125 325.39367187 46.5859375 326.03515625 C93.94113002 360.46799962 151.81770055 371.7488388 209.078125 363.1484375 C210.74559433 362.8191429 212.41240825 362.48648572 214.078125 362.1484375 C218.89116973 361.63783623 222.16455689 361.66673795 226.515625 363.9609375 C229.62532435 366.6155589 230.89642676 368.42164453 231.890625 372.3984375 C232.26689774 379.92389238 228.10854863 384.81979357 223.328125 390.1484375 C222.76174316 390.7892627 222.19536133 391.43008789 221.61181641 392.09033203 C186.54570739 431.30435364 141.64774798 457.42672738 90.390625 468.8984375 C89.51374023 469.09719482 88.63685547 469.29595215 87.73339844 469.50073242 C72.17334593 472.82383774 56.74975105 473.52437887 40.890625 473.4609375 C39.94313385 473.45911469 38.9956427 473.45729187 38.0194397 473.45541382 C24.16156329 473.41053889 10.68906229 472.95858021 -2.921875 470.1484375 C-3.78828613 469.98214844 -4.65469727 469.81585938 -5.54736328 469.64453125 C-41.6254263 462.6554177 -75.93851052 447.89068598 -104.921875 425.1484375 C-105.80488281 424.45621094 -106.68789062 423.76398438 -107.59765625 423.05078125 C-122.38960837 411.18792856 -136.20903426 398.07616635 -147.921875 383.1484375 C-148.70046875 382.19839844 -149.4790625 381.24835938 -150.28125 380.26953125 C-161.51315077 366.26542568 -170.44124117 350.43873205 -177.921875 334.1484375 C-178.2513916 333.43429687 -178.5809082 332.72015625 -178.92041016 331.984375 C-187.63001443 312.85740091 -193.49821272 292.87107939 -196.921875 272.1484375 C-197.13585937 270.85421875 -197.34984375 269.56 -197.5703125 268.2265625 C-206.17032031 208.15114562 -191.83628082 142.85015635 -155.26025391 93.921875 C-154.59775635 93.04402344 -154.59775635 93.04402344 -153.921875 92.1484375 C-153.47634277 91.5503125 -153.03081055 90.9521875 -152.57177734 90.3359375 C-145.9008866 81.42541341 -138.63393625 73.16724298 -130.921875 65.1484375 C-130.21780518 64.41149658 -130.21780518 64.41149658 -129.49951172 63.65966797 C-123.04680099 56.93573998 -116.2969064 50.84161377 -108.921875 45.1484375 C-108.38643066 44.73126465 -107.85098633 44.3140918 -107.29931641 43.88427734 C-86.30661569 27.62622879 -28.58628147 -12.66627919 0 0 Z " fill="#FAD206" transform="translate(239.921875,19.8515625)"/>
<path d="M0 0 C3.66267986 2.5638759 5.03009874 5.7611774 6.14453125 9.890625 C5.94088914 16.81445661 0.79804925 22.68931958 -3.046875 28.0859375 C-8.91220388 36.50778119 -14.21511023 45.02934941 -18.921875 54.1484375 C-19.29795898 54.87466309 -19.67404297 55.60088867 -20.06152344 56.34912109 C-35.10928576 85.79505667 -42.38611946 117.95169677 -42.296875 150.9609375 C-42.29556076 152.16224304 -42.29556076 152.16224304 -42.29421997 153.38781738 C-42.1312907 198.92006609 -27.78778987 243.89478906 0.078125 280.1484375 C0.76648438 281.04820312 1.45484375 281.94796875 2.1640625 282.875 C14.38293262 298.47458518 28.16423122 312.36460172 44.078125 324.1484375 C44.90570313 324.77105469 45.73328125 325.39367187 46.5859375 326.03515625 C93.94113002 360.46799962 151.81770055 371.7488388 209.078125 363.1484375 C210.74559433 362.8191429 212.41240825 362.48648572 214.078125 362.1484375 C218.89116973 361.63783623 222.16455689 361.66673795 226.515625 363.9609375 C229.62532435 366.6155589 230.89642676 368.42164453 231.890625 372.3984375 C232.26689774 379.92389238 228.10854863 384.81979357 223.328125 390.1484375 C222.76174316 390.7892627 222.19536133 391.43008789 221.61181641 392.09033203 C186.54570739 431.30435364 141.64774798 457.42672738 90.390625 468.8984375 C89.51374023 469.09719482 88.63685547 469.29595215 87.73339844 469.50073242 C72.17334593 472.82383774 56.74975105 473.52437887 40.890625 473.4609375 C39.94313385 473.45911469 38.9956427 473.45729187 38.0194397 473.45541382 C24.16156329 473.41053889 10.68906229 472.95858021 -2.921875 470.1484375 C-3.78828613 469.98214844 -4.65469727 469.81585938 -5.54736328 469.64453125 C-41.6254263 462.6554177 -75.93851052 447.89068598 -104.921875 425.1484375 C-105.80488281 424.45621094 -106.68789062 423.76398438 -107.59765625 423.05078125 C-122.38960837 411.18792856 -136.20903426 398.07616635 -147.921875 383.1484375 C-148.70046875 382.19839844 -149.4790625 381.24835938 -150.28125 380.26953125 C-161.51315077 366.26542568 -170.44124117 350.43873205 -177.921875 334.1484375 C-178.2513916 333.43429687 -178.5809082 332.72015625 -178.92041016 331.984375 C-187.63001443 312.85740091 -193.49821272 292.87107939 -196.921875 272.1484375 C-197.13585937 270.85421875 -197.34984375 269.56 -197.5703125 268.2265625 C-206.17032031 208.15114562 -191.83628082 142.85015635 -155.26025391 93.921875 C-154.59775635 93.04402344 -154.59775635 93.04402344 -153.921875 92.1484375 C-153.47634277 91.5503125 -153.03081055 90.9521875 -152.57177734 90.3359375 C-145.9008866 81.42541341 -138.63393625 73.16724298 -130.921875 65.1484375 C-130.21780518 64.41149658 -130.21780518 64.41149658 -129.49951172 63.65966797 C-123.04680099 56.93573998 -116.2969064 50.84161377 -108.921875 45.1484375 C-108.38643066 44.73126465 -107.85098633 44.3140918 -107.29931641 43.88427734 C-86.30661569 27.62622879 -28.58628147 -12.66627919 0 0 Z M-51.421875 38.3984375 C-52.07914581 38.7142276 -52.73641663 39.0300177 -53.41360474 39.3553772 C-64.57427259 44.75022541 -74.96562498 50.72590257 -84.921875 58.1484375 C-85.54545898 58.60814941 -86.16904297 59.06786133 -86.81152344 59.54150391 C-95.71966828 66.16039171 -103.91310108 73.47734905 -111.921875 81.1484375 C-112.67210937 81.85742188 -113.42234375 82.56640625 -114.1953125 83.296875 C-119.58885592 88.51987159 -124.33803179 94.21050866 -128.921875 100.1484375 C-129.40817383 100.77476074 -129.89447266 101.40108398 -130.39550781 102.04638672 C-147.82630833 124.71295171 -160.70808052 150.46693251 -167.921875 178.1484375 C-168.34726563 179.69337891 -168.34726563 179.69337891 -168.78125 181.26953125 C-171.04420454 189.77870214 -172.5513561 198.45573999 -173.921875 207.1484375 C-174.09533447 208.22407959 -174.26879395 209.29972168 -174.44750977 210.40795898 C-174.93816886 214.27691833 -175.11730027 218.0833694 -175.16015625 221.9765625 C-175.16985947 222.71508453 -175.17956268 223.45360657 -175.18955994 224.21450806 C-175.21448027 226.60920699 -175.22709719 229.00362173 -175.234375 231.3984375 C-175.23699341 232.21846252 -175.23961182 233.03848755 -175.24230957 233.88336182 C-175.24918276 254.05469323 -173.03585638 273.84543274 -166.921875 293.1484375 C-166.59243896 294.2621875 -166.59243896 294.2621875 -166.25634766 295.3984375 C-153.22523627 339.44130009 -125.83092921 378.79953572 -88.921875 406.1484375 C-87.80206589 406.99867495 -86.6822741 407.8489352 -85.5625 408.69921875 C-76.52808383 415.4544357 -66.91692882 420.94496253 -56.921875 426.1484375 C-55.91979004 426.67800049 -55.91979004 426.67800049 -54.89746094 427.21826172 C-35.97966856 437.10302117 -14.95764809 443.70309242 6.078125 447.1484375 C7.3259375 447.37144531 8.57375 447.59445312 9.859375 447.82421875 C31.63206141 451.07684568 55.14192184 450.25684926 76.76074219 446.54541016 C78.79102088 446.19761905 80.8287587 445.89396394 82.8671875 445.59765625 C109.52507658 441.17473334 136.82366828 429.36567413 159.078125 414.1484375 C159.62404297 413.78073242 160.16996094 413.41302734 160.73242188 413.03417969 C170.04834601 406.73099817 178.80845854 399.77714197 187.078125 392.1484375 C187.078125 391.8184375 187.078125 391.4884375 187.078125 391.1484375 C186.08184082 391.12861816 185.08555664 391.10879883 184.05908203 391.08837891 C145.39700887 390.29182791 145.39700887 390.29182791 133.078125 388.1484375 C132.26359863 388.00986328 131.44907227 387.87128906 130.60986328 387.72851562 C91.2362501 380.74229013 54.22953487 364.22031139 23.078125 339.1484375 C22.49401855 338.68002441 21.90991211 338.21161133 21.30810547 337.72900391 C6.24236175 325.52282404 -7.46867192 311.80265736 -18.921875 296.1484375 C-19.76791692 295.02059904 -20.61427236 293.89299569 -21.4609375 292.765625 C-58.82216005 242.39822951 -73.60711975 177.73244301 -64.7565918 115.9387207 C-60.41878854 88.30186318 -51.89038227 61.54108483 -37.69140625 37.33984375 C-35.76023645 34.46510929 -35.76023645 34.46510929 -35.921875 32.1484375 C-41.06633112 32.1484375 -46.77543322 36.16498514 -51.421875 38.3984375 Z " fill="#010000" transform="translate(239.921875,19.8515625)"/>
<path d="M0 0 C1.0979077 3.32975947 0.8763462 5.5400831 0.07421875 8.9296875 C-0.14459961 9.88198242 -0.36341797 10.83427734 -0.58886719 11.81542969 C-0.82766602 12.82508789 -1.06646484 13.83474609 -1.3125 14.875 C-1.78563784 16.98107998 -2.25571019 19.08785107 -2.72265625 21.1953125 C-2.94711426 22.20754883 -3.17157227 23.21978516 -3.40283203 24.26269531 C-15.2368144 78.50742561 -1.43988241 138.74980282 27.12109375 185.54296875 C28.99761042 188.43381876 30.96260714 191.22035992 33 194 C33.4218457 194.59264648 33.84369141 195.18529297 34.27832031 195.79589844 C41.30827055 205.66953539 48.9553218 214.67701986 57.40722656 223.36035156 C58.8238038 224.81861838 60.22186915 226.29481656 61.6171875 227.7734375 C68.18350055 234.59809729 75.43134799 240.34443861 83 246 C83.5779834 246.43344727 84.1559668 246.86689453 84.75146484 247.31347656 C108.93746504 265.33173935 135.84050945 277.80656658 165.0625 285.3125 C165.94574951 285.54283936 166.82899902 285.77317871 167.73901367 286.01049805 C184.89059386 290.18465684 202.08599888 291.55922226 219.6875 291.4375 C220.64322906 291.43412628 221.59895813 291.43075256 222.58364868 291.42727661 C246.3124409 291.30647225 267.83104286 287.66383875 290.55004883 280.69262695 C293.01803286 279.99490192 295.47955048 279.46950378 298 279 C298.33 279.66 298.66 280.32 299 281 C285.42587506 287.86068295 271.95096217 293.89377185 257.37207031 298.28173828 C255.78754888 298.76153059 254.20857983 299.2600474 252.63574219 299.77685547 C245.80877314 301.97035319 238.96262448 303.1054913 231.875 304.125 C230.74707031 304.29386719 229.61914062 304.46273438 228.45703125 304.63671875 C226.26418312 304.96244005 224.07026194 305.281033 221.87524414 305.59179688 C219.6392879 305.90923925 217.406726 306.25062737 215.17578125 306.6015625 C208.59978404 307.38841931 201.92716588 307.2445406 195.3125 307.25 C194.57768402 307.25067474 193.84286804 307.25134949 193.08578491 307.25204468 C180.82635131 307.23421483 169.04264262 306.42699738 157 304 C156.11344727 303.82839355 155.22689453 303.65678711 154.31347656 303.47998047 C112.16999834 295.18034088 74.73888419 274.82957343 44 245 C43.10667969 244.14664063 42.21335938 243.29328125 41.29296875 242.4140625 C15.67082425 217.46100626 -1.75136165 184.99478361 -12 151 C-12.38800781 149.77796875 -12.77601562 148.5559375 -13.17578125 147.296875 C-21.85875404 117.92898249 -23.8385519 82.98924596 -17 53 C-16.76023437 51.85015625 -16.52046875 50.7003125 -16.2734375 49.515625 C-15.57869482 46.3243894 -14.80588089 43.1648429 -14 40 C-13.71382813 38.82308594 -13.42765625 37.64617187 -13.1328125 36.43359375 C-9.95095514 23.82449784 -5.47711662 11.79686657 0 0 Z " fill="#F6C101" transform="translate(85,162)"/>
</svg>
