<?xml version="1.0" encoding="UTF-8"?>
<svg version="1.1" xmlns="http://www.w3.org/2000/svg" width="512" height="512">
<path d="M0 0 C1.08474609 0.00081573 1.08474609 0.00081573 2.19140625 0.00164795 C14.48943942 0.04401055 26.18275022 1.04546212 38.0625 4.375 C39.14144531 4.67253174 39.14144531 4.67253174 40.2421875 4.97607422 C58.05062411 10.10089217 75.07329445 19.25851273 89.0625 31.375 C89.57603027 31.81312012 90.08956055 32.25124023 90.61865234 32.70263672 C117.46912554 55.7374727 134.32159306 88.24610243 138.0625 123.375 C138.2785897 128.08379779 138.33900277 132.78676239 138.375 137.5 C138.40400391 138.74265625 138.43300781 139.9853125 138.46289062 141.265625 C138.55809264 155.29693798 135.04015313 166.69958156 125.5625 177.125 C124.7375 177.8675 123.9125 178.61 123.0625 179.375 C122.134375 180.220625 121.20625 181.06625 120.25 181.9375 C109.447051 190.74605842 96.42007007 191.49497185 83.0625 190.375 C71.95001473 188.29470062 61.4446151 180.63494 55.0625 171.375 C48.49743924 161.08729306 47.62582187 151.86565966 46.93945312 139.88671875 C46.29884108 130.38719234 45.05134637 121.41081606 39.5 113.4375 C36.1155316 108.4954483 36.1155316 108.4954483 35.09765625 106.18359375 C33.76355637 103.85269471 32.49669891 103.43606106 30.0625 102.375 C28.67716025 101.43167527 27.30269005 100.47225712 25.9375 99.5 C14.89053845 92.11730838 4.01165325 90.09638722 -9.0234375 92.65625 C-21.9039376 95.83320981 -31.71652763 103.1935649 -39.15234375 114.16796875 C-46.12076646 126.50076215 -45.40478244 141.53016554 -45.44921875 155.2109375 C-45.46610008 157.18634125 -45.48425484 159.16173448 -45.50361633 161.13711548 C-45.55074782 166.28915112 -45.5807941 171.44114412 -45.60705566 176.59332275 C-45.63704896 181.86959247 -45.6835139 187.14571572 -45.72851562 192.421875 C-45.8141285 202.73950612 -45.88165876 213.05716774 -45.9375 223.375 C-44.93750819 223.37223462 -43.93751638 223.36946924 -42.90722179 223.36662006 C-18.5520859 223.29996045 5.80303813 223.25069379 30.15824604 223.21956348 C41.93634093 223.20410818 53.71437548 223.18304416 65.49243164 223.14868164 C75.76064396 223.11873843 86.02881257 223.09941529 96.29706734 223.09273452 C101.73178945 223.08883061 107.16638654 223.07968365 112.6010685 223.05780983 C117.72196952 223.03736696 122.84269463 223.03118195 127.96363258 223.03567696 C129.83765114 223.03485524 131.7116759 223.02893629 133.58565903 223.01738358 C149.36224861 222.92493853 162.18978127 224.30959047 174.35546875 235.48046875 C183.23092794 244.88878853 187.37849877 255.58067827 187.32992554 268.37419128 C187.33672221 269.69965885 187.33672221 269.69965885 187.34365618 271.05190355 C187.35627588 274.00104611 187.35468137 276.95000342 187.35302734 279.89916992 C187.35901418 282.01863847 187.36582008 284.13810484 187.37338257 286.25756836 C187.39103574 292.00778787 187.39573772 297.75794783 187.39701414 303.50819182 C187.39843689 307.10392547 187.40270888 310.69964403 187.40800858 314.29537392 C187.42650787 326.84902531 187.43467947 339.40263426 187.43310547 351.95629883 C187.43190469 363.6425133 187.45299498 375.3285429 187.4845928 387.01471061 C187.51078208 397.05997559 187.52147162 407.10518029 187.52019465 417.15047914 C187.51968572 423.14461252 187.5253306 429.13858163 187.54655075 435.13268089 C187.56597721 440.77410622 187.56602729 446.41521134 187.55151749 452.05664825 C187.54943365 454.12052951 187.55410477 456.18443103 187.5662384 458.24827766 C187.65386355 474.19273365 186.32689088 487.76863496 174.734375 499.7890625 C163.99109883 509.90619681 154.30190899 512.68146361 139.78495789 512.64242554 C138.5487162 512.64695665 137.31247452 512.65148776 136.03877097 512.65615618 C132.61914579 512.66660742 129.19973135 512.6681293 125.78010523 512.66576743 C122.08741739 512.66535851 118.39476066 512.67640559 114.7020874 512.68588257 C107.47195615 512.70247687 100.24185752 512.7079914 93.01170882 512.70910732 C87.13333332 512.7100585 81.25496855 512.71417228 75.37659645 512.72050858 C58.70133356 512.73811637 42.02609639 512.74734812 25.35082414 512.74584763 C24.45234954 512.74576772 23.55387493 512.7456878 22.62817383 512.74560547 C21.72859917 512.74552371 20.82902451 512.74544195 19.90219001 512.74535771 C5.32409586 512.74454484 -9.25389496 512.76368381 -23.83195923 512.7918822 C-38.80942084 512.82062401 -53.78683209 512.8344218 -68.76432198 512.83269465 C-77.16952294 512.83203122 -85.57461556 512.83750307 -93.97979164 512.85905075 C-101.1360843 512.87727958 -108.2922195 512.88159592 -115.44852535 512.8680319 C-119.09742824 512.8615109 -122.74602919 512.86135327 -126.39490318 512.8787384 C-130.35641014 512.89741844 -134.31747842 512.88489192 -138.27900696 512.86947632 C-139.42406104 512.87976344 -140.56911512 512.89005057 -141.74886781 512.90064943 C-152.34418624 512.80966369 -160.31711097 509.33549422 -168.9375 503.375 C-170.2059375 502.5396875 -170.2059375 502.5396875 -171.5 501.6875 C-180.52406154 493.12621084 -185.44965457 481.77774766 -186.03043401 469.39328814 C-186.06849643 467.19051952 -186.07562271 464.98977661 -186.07121277 462.78668213 C-186.07347833 461.94725059 -186.07574388 461.10781906 -186.07807809 460.2429502 C-186.08438406 457.44352814 -186.08359092 454.64415492 -186.08276367 451.84472656 C-186.0857573 449.83201027 -186.08916031 447.81929456 -186.09294128 445.80657959 C-186.10176516 440.34774886 -186.10411873 434.8889338 -186.10475707 429.43009663 C-186.10546854 426.01662598 -186.10760471 422.6031593 -186.11025429 419.18968964 C-186.1195027 407.27261604 -186.12358985 395.35555363 -186.12280273 383.43847656 C-186.12220222 372.34419388 -186.13275012 361.24995985 -186.1485464 350.15568948 C-186.16163906 340.61914729 -186.1669859 331.08262097 -186.16634732 321.54606986 C-186.16609283 315.85550713 -186.16891743 310.16498765 -186.17952538 304.4744339 C-186.18923527 299.11953823 -186.18926572 293.7647269 -186.18200874 288.40982819 C-186.18096646 286.45034664 -186.1833045 284.49085977 -186.1893692 282.53138733 C-186.24025254 264.94477936 -185.34840465 248.98127702 -172.75 235.375 C-164.25024483 227.58597521 -153.6689484 223.25060261 -142.19140625 223.3359375 C-141.20599854 223.34157715 -140.22059082 223.3472168 -139.20532227 223.35302734 C-138.08275024 223.36390381 -138.08275024 223.36390381 -136.9375 223.375 C-136.94194122 222.3464389 -136.94638245 221.31787781 -136.95095825 220.25814819 C-136.99187624 210.46406343 -137.02166007 200.66999647 -137.04112434 190.87584496 C-137.05146815 185.84313715 -137.06545057 180.81049949 -137.08837891 175.77783203 C-137.11044894 170.90186521 -137.12213884 166.02596493 -137.12725449 161.14995193 C-137.13089007 159.30926087 -137.13798448 157.46857255 -137.14896011 155.62791061 C-137.29354251 130.32533569 -135.54648643 105.63925267 -124.9375 82.375 C-124.65422852 81.73884766 -124.37095703 81.10269531 -124.07910156 80.44726562 C-115.78908788 62.03519105 -103.67783715 45.1301008 -87.9375 32.375 C-87.00421875 31.60414062 -86.0709375 30.83328125 -85.109375 30.0390625 C-70.63336113 18.33068937 -54.13080419 9.99342472 -36.3125 4.625 C-35.65644775 4.42616211 -35.00039551 4.22732422 -34.32446289 4.02246094 C-22.99244472 0.77798379 -11.7356766 -0.03331704 0 0 Z " fill="#F4C424" transform="translate(229.9375,-0.37499999999999994)"/>
<path d="M0 0 C1.08474609 0.00081573 1.08474609 0.00081573 2.19140625 0.00164795 C14.48943942 0.04401055 26.18275022 1.04546212 38.0625 4.375 C39.14144531 4.67253174 39.14144531 4.67253174 40.2421875 4.97607422 C58.05062411 10.10089217 75.07329445 19.25851273 89.0625 31.375 C89.57603027 31.81312012 90.08956055 32.25124023 90.61865234 32.70263672 C117.46912554 55.7374727 134.32159306 88.24610243 138.0625 123.375 C138.2785897 128.08379779 138.33900277 132.78676239 138.375 137.5 C138.40400391 138.74265625 138.43300781 139.9853125 138.46289062 141.265625 C138.55809264 155.29693798 135.04015313 166.69958156 125.5625 177.125 C124.7375 177.8675 123.9125 178.61 123.0625 179.375 C122.134375 180.220625 121.20625 181.06625 120.25 181.9375 C109.447051 190.74605842 96.42007007 191.49497185 83.0625 190.375 C71.95001473 188.29470062 61.4446151 180.63494 55.0625 171.375 C48.49743924 161.08729306 47.62582187 151.86565966 46.93945312 139.88671875 C46.29884108 130.38719234 45.05134637 121.41081606 39.5 113.4375 C36.1155316 108.4954483 36.1155316 108.4954483 35.09765625 106.18359375 C33.76355637 103.85269471 32.49669891 103.43606106 30.0625 102.375 C28.67716025 101.43167527 27.30269005 100.47225712 25.9375 99.5 C14.89053845 92.11730838 4.01165325 90.09638722 -9.0234375 92.65625 C-21.9039376 95.83320981 -31.71652763 103.1935649 -39.15234375 114.16796875 C-46.12076646 126.50076215 -45.40478244 141.53016554 -45.44921875 155.2109375 C-45.46610008 157.18634125 -45.48425484 159.16173448 -45.50361633 161.13711548 C-45.55074782 166.28915112 -45.5807941 171.44114412 -45.60705566 176.59332275 C-45.63704896 181.86959247 -45.6835139 187.14571572 -45.72851562 192.421875 C-45.8141285 202.73950612 -45.88165876 213.05716774 -45.9375 223.375 C-44.93750819 223.37223462 -43.93751638 223.36946924 -42.90722179 223.36662006 C-18.5520859 223.29996045 5.80303813 223.25069379 30.15824604 223.21956348 C41.93634093 223.20410818 53.71437548 223.18304416 65.49243164 223.14868164 C75.76064396 223.11873843 86.02881257 223.09941529 96.29706734 223.09273452 C101.73178945 223.08883061 107.16638654 223.07968365 112.6010685 223.05780983 C117.72196952 223.03736696 122.84269463 223.03118195 127.96363258 223.03567696 C129.83765114 223.03485524 131.7116759 223.02893629 133.58565903 223.01738358 C149.36224861 222.92493853 162.18978127 224.30959047 174.35546875 235.48046875 C183.23092794 244.88878853 187.37849877 255.58067827 187.32992554 268.37419128 C187.33672221 269.69965885 187.33672221 269.69965885 187.34365618 271.05190355 C187.35627588 274.00104611 187.35468137 276.95000342 187.35302734 279.89916992 C187.35901418 282.01863847 187.36582008 284.13810484 187.37338257 286.25756836 C187.39103574 292.00778787 187.39573772 297.75794783 187.39701414 303.50819182 C187.39843689 307.10392547 187.40270888 310.69964403 187.40800858 314.29537392 C187.42650787 326.84902531 187.43467947 339.40263426 187.43310547 351.95629883 C187.43190469 363.6425133 187.45299498 375.3285429 187.4845928 387.01471061 C187.51078208 397.05997559 187.52147162 407.10518029 187.52019465 417.15047914 C187.51968572 423.14461252 187.5253306 429.13858163 187.54655075 435.13268089 C187.56597721 440.77410622 187.56602729 446.41521134 187.55151749 452.05664825 C187.54943365 454.12052951 187.55410477 456.18443103 187.5662384 458.24827766 C187.65386355 474.19273365 186.32689088 487.76863496 174.734375 499.7890625 C163.99109883 509.90619681 154.30190899 512.68146361 139.78495789 512.64242554 C138.5487162 512.64695665 137.31247452 512.65148776 136.03877097 512.65615618 C132.61914579 512.66660742 129.19973135 512.6681293 125.78010523 512.66576743 C122.08741739 512.66535851 118.39476066 512.67640559 114.7020874 512.68588257 C107.47195615 512.70247687 100.24185752 512.7079914 93.01170882 512.70910732 C87.13333332 512.7100585 81.25496855 512.71417228 75.37659645 512.72050858 C58.70133356 512.73811637 42.02609639 512.74734812 25.35082414 512.74584763 C24.45234954 512.74576772 23.55387493 512.7456878 22.62817383 512.74560547 C21.72859917 512.74552371 20.82902451 512.74544195 19.90219001 512.74535771 C5.32409586 512.74454484 -9.25389496 512.76368381 -23.83195923 512.7918822 C-38.80942084 512.82062401 -53.78683209 512.8344218 -68.76432198 512.83269465 C-77.16952294 512.83203122 -85.57461556 512.83750307 -93.97979164 512.85905075 C-101.1360843 512.87727958 -108.2922195 512.88159592 -115.44852535 512.8680319 C-119.09742824 512.8615109 -122.74602919 512.86135327 -126.39490318 512.8787384 C-130.35641014 512.89741844 -134.31747842 512.88489192 -138.27900696 512.86947632 C-139.42406104 512.87976344 -140.56911512 512.89005057 -141.74886781 512.90064943 C-152.34418624 512.80966369 -160.31711097 509.33549422 -168.9375 503.375 C-170.2059375 502.5396875 -170.2059375 502.5396875 -171.5 501.6875 C-180.52406154 493.12621084 -185.44965457 481.77774766 -186.03043401 469.39328814 C-186.06849643 467.19051952 -186.07562271 464.98977661 -186.07121277 462.78668213 C-186.07347833 461.94725059 -186.07574388 461.10781906 -186.07807809 460.2429502 C-186.08438406 457.44352814 -186.08359092 454.64415492 -186.08276367 451.84472656 C-186.0857573 449.83201027 -186.08916031 447.81929456 -186.09294128 445.80657959 C-186.10176516 440.34774886 -186.10411873 434.8889338 -186.10475707 429.43009663 C-186.10546854 426.01662598 -186.10760471 422.6031593 -186.11025429 419.18968964 C-186.1195027 407.27261604 -186.12358985 395.35555363 -186.12280273 383.43847656 C-186.12220222 372.34419388 -186.13275012 361.24995985 -186.1485464 350.15568948 C-186.16163906 340.61914729 -186.1669859 331.08262097 -186.16634732 321.54606986 C-186.16609283 315.85550713 -186.16891743 310.16498765 -186.17952538 304.4744339 C-186.18923527 299.11953823 -186.18926572 293.7647269 -186.18200874 288.40982819 C-186.18096646 286.45034664 -186.1833045 284.49085977 -186.1893692 282.53138733 C-186.24025254 264.94477936 -185.34840465 248.98127702 -172.75 235.375 C-164.25024483 227.58597521 -153.6689484 223.25060261 -142.19140625 223.3359375 C-141.20599854 223.34157715 -140.22059082 223.3472168 -139.20532227 223.35302734 C-138.08275024 223.36390381 -138.08275024 223.36390381 -136.9375 223.375 C-136.94194122 222.3464389 -136.94638245 221.31787781 -136.95095825 220.25814819 C-136.99187624 210.46406343 -137.02166007 200.66999647 -137.04112434 190.87584496 C-137.05146815 185.84313715 -137.06545057 180.81049949 -137.08837891 175.77783203 C-137.11044894 170.90186521 -137.12213884 166.02596493 -137.12725449 161.14995193 C-137.13089007 159.30926087 -137.13798448 157.46857255 -137.14896011 155.62791061 C-137.29354251 130.32533569 -135.54648643 105.63925267 -124.9375 82.375 C-124.65422852 81.73884766 -124.37095703 81.10269531 -124.07910156 80.44726562 C-115.78908788 62.03519105 -103.67783715 45.1301008 -87.9375 32.375 C-87.00421875 31.60414062 -86.0709375 30.83328125 -85.109375 30.0390625 C-70.63336113 18.33068937 -54.13080419 9.99342472 -36.3125 4.625 C-35.65644775 4.42616211 -35.00039551 4.22732422 -34.32446289 4.02246094 C-22.99244472 0.77798379 -11.7356766 -0.03331704 0 0 Z M-155.75 256.3125 C-159.65073982 261.77353574 -160.23188528 266.20716808 -160.21165466 272.81892395 C-160.21689134 273.66693044 -160.22212802 274.51493693 -160.22752339 275.38864058 C-160.24251995 278.22894944 -160.24322846 281.0690781 -160.24389648 283.90942383 C-160.25151818 285.94641931 -160.2599457 287.98341192 -160.26911926 290.020401 C-160.29106978 295.55352901 -160.2998639 301.08660175 -160.30494571 306.61976838 C-160.30858855 310.07709741 -160.31482824 313.53441195 -160.3219471 316.99173546 C-160.34644329 329.05447399 -160.35949391 341.11716951 -160.36303711 353.17993164 C-160.36667273 364.42202044 -160.39656977 375.66383628 -160.43844169 386.90584165 C-160.47313651 396.5595003 -160.48858541 406.21306846 -160.48928314 415.86678904 C-160.49007621 421.63171816 -160.49882902 427.39636923 -160.52728081 433.1612339 C-160.55344739 438.58434919 -160.55567424 444.00695563 -160.53962517 449.43010521 C-160.53780959 451.41826868 -160.54451117 453.40646131 -160.56044388 455.39456177 C-160.58090309 458.11368373 -160.57035396 460.83102506 -160.55223083 463.55012512 C-160.57203079 464.724031 -160.57203079 464.724031 -160.59223074 465.92165214 C-160.49264597 472.4848207 -158.0186922 477.32769213 -153.35323137 481.94184619 C-149.44027581 485.28715713 -147.18686777 486.49902021 -142.12224388 486.50922108 C-140.58749367 486.51590784 -140.58749367 486.51590784 -139.02173841 486.52272969 C-137.32275417 486.52245315 -137.32275417 486.52245315 -135.58944702 486.52217102 C-134.3928183 486.52584771 -133.19618959 486.5295244 -131.96329939 486.5333125 C-128.6311865 486.54245147 -125.29912291 486.54705169 -121.96700215 486.54970181 C-118.37720423 486.55360054 -114.78742063 486.56317929 -111.19763184 486.57191467 C-102.52204766 486.59169311 -93.84646228 486.60174784 -85.17086118 486.61064246 C-81.08648791 486.61502381 -77.00211593 486.62039109 -72.91774368 486.62563133 C-59.34157009 486.64264632 -45.76539732 486.65714016 -32.18921471 486.66438007 C-28.66471735 486.66629001 -25.14021999 486.66821034 -21.61572266 486.67016602 C-20.7397114 486.67064976 -19.86370014 486.6711335 -18.96114309 486.6716319 C-4.7726088 486.67993088 9.41584114 486.70526436 23.6043386 486.73774669 C38.16804207 486.77081636 52.73170268 486.78882882 67.29544389 486.79202431 C75.47374535 486.79418969 83.65192387 486.80294212 91.83018875 486.82848549 C98.7959781 486.85019139 105.76161467 486.85824356 112.72743399 486.84851871 C116.280876 486.84397339 119.83400279 486.84587313 123.38740158 486.86528015 C127.24258026 486.88615318 131.09732461 486.87592816 134.95254517 486.86274719 C136.07181699 486.87371644 137.19108882 486.88468568 138.34427798 486.89598733 C144.76481553 486.84295187 149.72833726 486.1313813 155.0625 482.375 C160.51483037 476.77918725 161.35990731 471.45537601 161.34338379 463.86187744 C161.34932603 463.00640941 161.35526828 462.15094139 161.36139059 461.26955009 C161.37872924 458.40394419 161.38177801 455.53850574 161.38476562 452.67285156 C161.39402447 450.61777389 161.40407413 448.56269964 161.41485596 446.50762939 C161.44108356 440.92485589 161.45398978 435.34213048 161.46287727 429.759305 C161.46874184 426.27047645 161.47695204 422.781661 161.48588562 419.29283905 C161.51322973 408.37438145 161.53256605 397.45595385 161.5402894 386.53746438 C161.54925071 373.93856281 161.58434899 361.34009523 161.64229059 348.74132562 C161.68553702 338.99932984 161.70569862 329.25745611 161.70837164 319.51536536 C161.71046676 313.69836982 161.72226051 307.88178239 161.75801086 302.064888 C161.79099523 296.59164367 161.79527307 291.11911373 161.77773285 285.64580536 C161.77619329 283.6403156 161.78486228 281.63478726 161.80464935 279.62939453 C162.26961924 266.60985668 162.26961924 266.60985668 157.13118744 255.02352524 C150.11117509 249.42931738 143.83900857 248.79633158 135.02415466 248.86706543 C133.82577738 248.86082547 132.6274001 248.8545855 131.39270836 248.84815645 C128.08331303 248.83500258 124.77483135 248.83968078 121.46549237 248.85210133 C117.8901106 248.8611746 114.31480701 248.84717091 110.73944092 248.83618164 C103.74234854 248.81841657 96.74542802 248.82222721 89.74832898 248.8338322 C84.0611129 248.84287348 78.37394491 248.84408753 72.68672371 248.83973694 C71.47160991 248.83881754 71.47160991 248.83881754 70.23194836 248.83787957 C68.58619974 248.83660064 66.94045113 248.83530379 65.29470254 248.8339892 C49.87122152 248.82258949 34.44783567 248.83568791 19.02437026 248.85719067 C5.79427538 248.8750645 -7.43567913 248.87195404 -20.66577148 248.85351562 C-36.03640028 248.83210398 -51.40694573 248.82368451 -66.77758735 248.83596468 C-68.41690471 248.83723885 -70.05622209 248.83849634 -71.69553947 248.83973694 C-72.5020789 248.84035404 -73.30861832 248.84097114 -74.13959833 248.84160694 C-79.81958803 248.84505871 -85.4995248 248.83923532 -91.1795063 248.82981873 C-98.10201984 248.81859423 -105.02435198 248.82164831 -111.94684476 248.8429417 C-115.47790872 248.85344566 -119.00867034 248.85758538 -122.53973198 248.84434509 C-126.36870462 248.83020496 -130.19718347 248.84710204 -134.02613831 248.86706543 C-135.14033931 248.85814254 -136.25454031 248.84921966 -137.40250498 248.84002638 C-144.88259937 248.91580518 -150.86281981 250.07832315 -155.75 256.3125 Z " fill="#241F20" transform="translate(229.9375,-0.37499999999999994)"/>
<path d="M0 0 C0.85207031 0.26683594 1.70414062 0.53367187 2.58203125 0.80859375 C17.55411527 6.11366289 27.67088204 17.16588184 34.4050293 31.13696289 C36.67289621 36.05307227 38.60102015 40.55010496 39 46 C39.09152344 47.24007812 39.18304688 48.48015625 39.27734375 49.7578125 C39.95551126 63.91087359 36.68180734 77.52361948 28 89 C27.44486221 89.45047699 26.88972443 89.90095398 26.31776428 90.36508179 C22.19159515 94.05174782 20.59655316 97.19491593 20.23540401 102.77152443 C20.13043865 106.72847141 20.17351526 110.67556166 20.23828125 114.6328125 C20.23905449 116.35578625 20.23616139 118.07876518 20.2297821 119.80172729 C20.22022134 124.32074289 20.24874382 128.83860352 20.28894043 133.35742188 C20.35055733 140.59565128 20.37014044 147.83358939 20.35912132 155.07204819 C20.3632164 157.59289203 20.39348136 160.11247281 20.42610168 162.63308716 C20.42998372 164.18393748 20.43293726 165.73479049 20.43481445 167.28564453 C20.45084213 167.98086212 20.46686981 168.67607971 20.48338318 169.3923645 C20.45433632 174.38811567 19.20502796 177.20590737 16 181 C12.35601266 183.82977717 9.67688793 184.37984462 5.11157227 184.40405273 C3.95009171 184.41673691 2.78861115 184.42942108 1.5919342 184.44248962 C0.34600998 184.43955399 -0.89991425 184.43661835 -2.18359375 184.43359375 C-3.47185562 184.4388356 -4.76011749 184.44407745 -6.0874176 184.44947815 C-8.81008724 184.45839513 -11.53246335 184.4560028 -14.25512695 184.44604492 C-17.73324719 184.4345596 -21.21035146 184.45476525 -24.68833828 184.48396206 C-28.02014291 184.50678909 -31.3517129 184.49985468 -34.68359375 184.49609375 C-35.92749374 184.50732773 -37.17139374 184.51856171 -38.45298767 184.53013611 C-49.53787422 184.44084892 -49.53787422 184.44084892 -54 180 C-56.81427966 175.39281055 -57.41219016 171.59026854 -57.30541992 166.30151367 C-57.30143188 165.18071663 -57.30143188 165.18071663 -57.29736328 164.03727722 C-57.29043642 162.42328765 -57.27705471 160.80931537 -57.257864 159.19542503 C-57.23010101 156.63404124 -57.2253353 154.07356313 -57.22737122 151.51203918 C-57.23089266 144.23255777 -57.20798544 136.95368891 -57.1340332 129.67456055 C-57.09033707 125.2127926 -57.08583793 120.75237798 -57.10561562 116.29046059 C-57.10551852 114.59806102 -57.09078379 112.90559236 -57.06065941 111.21346092 C-56.69386789 100.09267132 -56.69386789 100.09267132 -61.92944336 90.59985352 C-63.27876274 89.39143805 -64.63464224 88.19026422 -66 87 C-68.0234375 83.671875 -68.0234375 83.671875 -69.375 80.75 C-69.83648437 79.77546875 -70.29796875 78.8009375 -70.7734375 77.796875 C-71.17820313 76.87390625 -71.58296875 75.9509375 -72 75 C-72.36351562 74.20078125 -72.72703125 73.4015625 -73.1015625 72.578125 C-77.30191861 60.5249292 -76.84818232 43.35362218 -71.54296875 31.8515625 C-70.77919922 30.44003906 -70.77919922 30.44003906 -70 29 C-69.48050781 28.03835938 -68.96101562 27.07671875 -68.42578125 26.0859375 C-60.35680467 12.43074636 -48.17677149 3.02117326 -32.96484375 -1.52734375 C-21.73203051 -4.22947179 -10.96464552 -3.5325427 0 0 Z " fill="#242020" transform="translate(249,277)"/>
<path d="M0 0 C17.91387132 15.14189897 30.61895032 37.24671589 35.58203125 60.08203125 C35.84258301 61.27276245 35.84258301 61.27276245 36.10839844 62.48754883 C37.54983494 69.61186801 37.94823899 76.51152238 37.95703125 83.76953125 C37.98152344 84.84525391 38.00601563 85.92097656 38.03125 87.02929688 C38.05965283 94.7595996 36.91441391 100.23079076 31.80078125 106.140625 C30.95 106.82318359 30.95 106.82318359 30.08203125 107.51953125 C29.51484375 107.99261719 28.94765625 108.46570313 28.36328125 108.953125 C23.74361406 111.88094039 17.85237689 111.77841326 12.58203125 111.08203125 C6.93293652 108.84552958 3.4882702 105.42951092 0.58203125 100.08203125 C-0.56766171 96.63295238 -0.60122399 93.78184818 -0.73046875 90.14453125 C-1.43378292 76.4916826 -3.51803829 62.06107719 -10.41796875 50.08203125 C-11.206875 48.70337891 -11.206875 48.70337891 -12.01171875 47.296875 C-22.50379022 29.96111146 -38.03234339 18.48227388 -57.66796875 13.20703125 C-77.03226919 9.28278219 -96.46438679 13.17207195 -113.23046875 23.51953125 C-114.97314094 24.68712162 -116.70387056 25.87288237 -118.41796875 27.08203125 C-119.35382813 27.73751953 -119.35382813 27.73751953 -120.30859375 28.40625 C-134.07448644 39.11662913 -143.08537238 57.04932419 -145.41796875 74.08203125 C-145.99321956 81.48662654 -145.90745943 88.92947276 -145.9296875 96.3515625 C-145.9465615 98.48533645 -145.96471533 100.61910063 -145.98408508 102.75285339 C-146.03129581 108.32741235 -146.06129151 113.90193166 -146.08752441 119.47662354 C-146.11747692 125.18176093 -146.16395628 130.88676207 -146.20898438 136.59179688 C-146.29468798 147.75515216 -146.36064838 158.91849411 -146.41796875 170.08203125 C-158.95796875 170.08203125 -171.49796875 170.08203125 -184.41796875 170.08203125 C-184.53171988 157.55400687 -184.62311253 145.02633524 -184.67702961 132.49790764 C-184.70292983 126.67809468 -184.73796261 120.85865863 -184.79516602 115.0390625 C-184.85019341 109.40445471 -184.87953567 103.77020539 -184.89235497 98.13534927 C-184.90146972 96.00433853 -184.91926081 93.87334348 -184.94661903 91.74248886 C-185.37135662 57.23315395 -174.49374461 28.48264452 -150.35546875 3.58203125 C-108.61217281 -38.03386908 -44.35012656 -35.17917955 0 0 Z " fill="#F3C424" transform="translate(304.41796875,52.91796875)"/>
<path d="M0 0 C7.85460897 4.45547726 14.23894896 10.42006397 17.14453125 19.1953125 C18.79695559 28.05971969 18.70217031 37.7958201 13.5625 45.4375 C11.96691554 47.48896574 10.31667211 49.42475723 8.5390625 51.3203125 C7.88679688 52.01898438 7.23453125 52.71765625 6.5625 53.4375 C6.07501282 53.81784897 5.58752563 54.19819794 5.08526611 54.59007263 C1.39470725 57.91752448 0.20150296 60.87918941 -0.13943863 65.85000706 C-0.2671995 69.59831631 -0.26551977 73.33986743 -0.2421875 77.08984375 C-0.25344695 78.71653708 -0.26733166 80.34321417 -0.28372192 81.96986389 C-0.31967183 86.23283609 -0.3201448 90.49508983 -0.31304932 94.75817871 C-0.31213462 99.11560822 -0.34502031 103.47277104 -0.375 107.83007812 C-0.42877968 116.36604602 -0.44192729 124.90136363 -0.4375 133.4375 C-9.0175 133.4375 -17.5975 133.4375 -26.4375 133.4375 C-26.4468457 131.28782715 -26.45619141 129.1381543 -26.46582031 126.92333984 C-26.49962965 119.81054317 -26.55520046 112.69803543 -26.62140274 105.5854702 C-26.66086525 101.27425009 -26.69305961 96.96323386 -26.70849609 92.65185547 C-26.72367096 88.48892284 -26.75813065 84.32655074 -26.80580902 80.16386795 C-26.82061437 78.5779572 -26.82854053 76.99196642 -26.82938385 75.40598679 C-26.83175796 73.17939672 -26.85886949 70.95435019 -26.89160156 68.72802734 C-26.90048401 67.46227875 -26.90936646 66.19653015 -26.91851807 64.89242554 C-27.6176113 60.2384773 -29.58672975 57.03474008 -33.1484375 53.9609375 C-33.97214844 53.39246094 -33.97214844 53.39246094 -34.8125 52.8125 C-40.76334293 47.97744012 -44.33818399 39.93942571 -45.4375 32.4375 C-46.44413874 22.47012625 -43.33903079 15.07051753 -37.20703125 7.29296875 C-27.44580805 -2.94230944 -12.90182322 -6.08576567 0 0 Z " fill="#ECECEC" transform="translate(244.4375,302.5625)"/>
<path d="M0 0 C3.55106809 1.71969964 5.00361462 3.16163548 7.11328125 6.58984375 C8.23654214 10.80207207 8.71287533 14.22550321 7.11328125 18.33984375 C2.92331392 24.81442689 -3.26313039 27.79708672 -9.88671875 31.46484375 C-11.63507977 32.44986005 -13.38343648 33.43488435 -15.13128662 34.42080688 C-16.31346369 35.08641042 -17.49661476 35.75028693 -18.6807251 36.41244507 C-22.49963712 38.54818841 -26.28726836 40.73064753 -30.05859375 42.94921875 C-31.47591797 43.77848877 -31.47591797 43.77848877 -32.921875 44.62451172 C-34.68836323 45.65930527 -36.45157991 46.69971087 -38.2109375 47.74658203 C-43.76079492 50.96563426 -47.91073665 52.80973566 -54.44921875 51.77734375 C-58.69022356 50.00383265 -60.38277581 48.16940354 -62.88671875 44.33984375 C-64.41841785 40.03194003 -64.17266867 35.97018987 -62.54296875 31.734375 C-58.9963979 26.60690346 -53.03672602 23.89650641 -47.69970703 20.91650391 C-44.40902433 19.07209939 -41.14593479 17.18157349 -37.8828125 15.2890625 C-7.12815091 -2.49411492 -7.12815091 -2.49411492 0 0 Z " fill="#231F20" transform="translate(459.88671875,111.66015625)"/>
<path d="M0 0 C0.85408447 0.47824219 1.70816895 0.95648438 2.58813477 1.44921875 C13.51225939 7.59802155 24.33567902 13.93059892 35.125 20.3125 C36.46413452 21.07916992 36.46413452 21.07916992 37.83032227 21.86132812 C41.21472163 24.00164835 42.59768853 26.34927885 43.6328125 30.203125 C44.51131786 35.1003251 44.00675688 38.08592324 41.125 42.3125 C37.80283394 45.82450412 35.02867617 46.83422736 30.23706055 47.33325195 C26.76883299 47.29917504 24.07981833 45.89525169 21.125 44.25 C20.46419434 43.90146973 19.80338867 43.55293945 19.12255859 43.19384766 C9.57175493 38.07434075 0.24310638 32.51716751 -9.06958008 26.97998047 C-10.94843958 25.86322732 -12.83114534 24.75292134 -14.7175293 23.64892578 C-15.60609619 23.12540527 -16.49466309 22.60188477 -17.41015625 22.0625 C-18.197854 21.60101563 -18.98555176 21.13953125 -19.79711914 20.6640625 C-23.50796266 18.25033559 -26.10678653 15.71860257 -27.49609375 11.3671875 C-28.39920617 6.46989744 -27.64030205 3.36827633 -24.875 -0.6875 C-16.65247349 -8.69364423 -8.76181761 -4.99429707 0 0 Z " fill="#231F20" transform="translate(423.875,193.6875)"/>
</svg>
