<?xml version="1.0" encoding="UTF-8"?>
<svg version="1.1" xmlns="http://www.w3.org/2000/svg" width="512" height="512">
<path d="M0 0 C6.76679802 5.56335508 12.90291976 11.73280283 19.1015625 17.90869141 C20.31585203 19.11506751 21.53031912 20.3212649 22.74494934 21.52729797 C26.7086824 25.46499212 30.66712503 29.40798158 34.625 33.3515625 C35.99048192 34.71168053 37.35597064 36.07179173 38.72146606 37.43189621 C44.39595046 43.08479402 50.06901183 48.73911351 55.73835754 54.3971653 C63.85793888 62.50046071 71.98592755 70.59511122 80.12570953 78.67811644 C85.85510048 84.36889756 91.57495976 90.06914649 97.28772736 95.77661455 C100.69921512 99.18444158 104.11479612 102.58792089 107.54058838 105.98137283 C110.75590787 109.16676345 113.9593166 112.36365418 117.1537838 115.56995201 C118.3302229 116.746613 119.51098188 117.91897241 120.69623756 119.08675194 C122.30850665 120.67652437 123.90476551 122.28079218 125.49780273 123.88980103 C126.39667709 124.78536524 127.29555145 125.68092945 128.22166443 126.60363197 C130 129 130 129 129.83893985 130.89838392 C128.77894572 133.55375989 127.37731539 134.99876956 125.35529804 137.02222538 C124.56772659 137.81762008 123.78015513 138.61301478 122.96871787 139.43251234 C122.09404418 140.30049387 121.21937049 141.1684754 120.31819153 142.0627594 C119.39616509 142.98946581 118.47413864 143.91617223 117.52417201 144.87096065 C114.96064437 147.44704383 112.3878038 150.01364754 109.81335938 152.57881463 C107.03946682 155.3459347 104.27420254 158.1216539 101.50782776 160.89628601 C96.08266479 166.33481305 90.64939187 171.76516807 85.21320359 177.19267226 C80.79040643 181.60869682 76.37054304 186.02763774 71.95276451 190.44868279 C71.32415976 191.07774724 70.69555501 191.70681169 70.04790163 192.3549387 C68.7708207 193.63297882 67.49374649 194.91102567 66.21667894 196.18907916 C54.22765896 208.18666265 42.2294468 220.17501963 30.22809317 232.16026383 C19.94935174 242.42563384 9.67845557 252.6987982 -0.58666992 262.9777832 C-12.51323634 274.92044486 -24.44470791 286.8581711 -36.38391763 298.78819412 C-37.66033787 300.06365877 -38.93675187 301.33912965 -40.21315956 302.61460686 C-40.84111174 303.24209621 -41.46906393 303.86958557 -42.11604496 304.51608976 C-46.52202217 308.91948643 -50.92452844 313.32633474 -55.32567406 317.73456001 C-60.70365966 323.12100614 -66.08705235 328.50197966 -71.47720631 333.87625004 C-74.2228898 336.61410656 -76.96622755 339.35420003 -79.70298767 342.10097885 C-104.07256069 366.5520583 -126.94320711 382.35574221 -160.30859375 391.73828125 C-162.16511738 392.26782465 -164.02139996 392.79821382 -165.87745667 393.32939148 C-170.74411112 394.7198482 -175.61378156 396.09942224 -180.48425293 397.47644043 C-186.29317603 399.12093736 -192.09846849 400.77819632 -197.90415382 402.43408012 C-202.62133203 403.77901088 -207.33947895 405.12028786 -212.06015015 406.45291138 C-220.4648423 408.82857115 -228.8537064 411.23612099 -237.20361328 413.79833984 C-238.61701152 414.22723194 -240.03050655 414.65580521 -241.44410706 415.08403015 C-243.97568024 415.8509566 -246.49581453 416.64011567 -249.01573181 417.44587708 C-257.61573915 420.05285735 -267.39351186 422.2188531 -276.03895569 418.79728699 C-282.37555773 415.38287141 -286.69508158 410.91475525 -289 404 C-289.95855828 392.64077102 -287.88420518 383.06867364 -284.609375 372.28125 C-284.14683191 370.70421476 -283.68603806 369.12666556 -283.22686768 367.54864502 C-282.00875125 363.38132233 -280.76596601 359.22176992 -279.51727295 355.06352234 C-278.23085044 350.7654784 -276.96657985 346.46092101 -275.69921875 342.15722656 C-273.03614059 333.13081559 -270.33907337 324.11482071 -267.63095093 315.10183716 C-266.71008871 312.03424135 -265.79362285 308.96533519 -264.87695312 305.89648438 C-263.26580778 300.50986764 -261.64068506 295.12769103 -260 289.75 C-259.77759644 289.01885986 -259.55519287 288.28771973 -259.3260498 287.53442383 C-257.05617709 280.10629425 -254.61510263 272.75278452 -251.91796875 265.46875 C-251.68194946 264.82669617 -251.44593018 264.18464233 -251.20275879 263.52313232 C-246.78290142 251.8223185 -240.38872204 242.6960898 -231.68224907 233.74645805 C-229.97711691 231.97624349 -228.2963301 230.1859505 -226.62171936 228.38685608 C-216.83248682 217.87300529 -206.77674918 207.65379767 -196.59542656 197.52026176 C-193.79632866 194.73417622 -191.00050623 191.94482652 -188.20558167 189.15455627 C-182.28591489 183.24583255 -176.36193148 177.34144575 -170.4375 171.4375 C-164.00440054 165.02656022 -157.57213938 158.61478986 -151.14472824 152.1981464 C-147.93089844 148.9900376 -144.71318288 145.7858577 -141.49473572 142.5823822 C-139.80810977 140.89938972 -138.12162459 139.21625616 -136.43530273 137.53295898 C-135.30451294 136.40991867 -135.30451294 136.40991867 -134.15087891 135.26419067 C-130.88955848 132.00319401 -127.71581064 128.72229335 -124.7166748 125.21766663 C-119.80513694 119.52496999 -114.41981861 114.28856609 -109.09790039 108.984375 C-107.90454979 107.79130695 -106.71142029 106.59801772 -105.51849365 105.40452576 C-102.30017098 102.18591774 -99.078788 98.9703889 -95.85682225 95.75542831 C-92.48245436 92.38733782 -89.11094322 89.01639008 -85.73912048 85.64575195 C-79.36294386 79.27267575 -72.98422379 72.90215163 -66.60457271 66.53255367 C-59.33775188 59.27693409 -52.07379124 52.01845388 -44.81006253 44.75973892 C-29.87654228 29.83665387 -14.93945633 14.91714229 0 0 Z " fill="#26A1F4" transform="translate(289,92)"/>
<path d="M0 0 C1.38638672 0.60134766 1.38638672 0.60134766 2.80078125 1.21484375 C18.21953601 8.73884713 30.30429058 24.05706316 42.31958008 36.02441406 C44.81657465 38.51028275 47.32506663 40.98421528 49.83616352 43.45582581 C51.79997902 45.39328088 53.75465059 47.3397767 55.70711327 49.28866577 C57.06699919 50.64145932 58.43645819 51.98460851 59.80622864 53.32739258 C67.2586901 60.80575866 73.29231853 68.94305411 76.875 78.9375 C77.26429688 79.99839844 77.65359375 81.05929688 78.0546875 82.15234375 C83.28605482 97.91129737 80.65858967 115.02725233 73.71875 129.7109375 C67.43056859 141.30020207 56.3409551 150.80822199 47.08203125 160.015625 C46.08862001 161.00716314 45.09543526 161.99892824 44.10246277 162.99090576 C41.53200782 165.55760552 38.95856175 168.12128429 36.38439941 170.68426514 C33.74071864 173.31757814 31.09999014 175.95384841 28.45898438 178.58984375 C23.30881428 183.72940057 18.15546885 188.86575776 13 194 C6.18247509 188.40938422 0.03887223 182.17259176 -6.17749023 175.93603516 C-7.39996712 174.71327585 -8.62266494 173.49073739 -9.8455658 172.2684021 C-13.14894119 168.96531251 -16.4492337 165.65915834 -19.74896502 162.35242891 C-23.2038162 158.89130809 -26.66151715 155.43303659 -30.11891174 151.97445679 C-36.65847511 145.43179074 -43.1954861 138.88658071 -49.73157507 132.34044397 C-57.17580505 124.88501981 -64.62288945 117.43244968 -72.07021034 109.98011327 C-87.38330967 94.65657361 -102.69283598 79.32946848 -118 64 C-114.51383269 59.86360807 -110.97424453 55.84599078 -107.16308594 52.00195312 C-105.80071808 50.62517395 -105.80071808 50.62517395 -104.41082764 49.22058105 C-103.43562233 48.24052644 -102.46013087 47.26075648 -101.484375 46.28125 C-100.98382851 45.77787613 -100.48328201 45.27450226 -99.96756744 44.75587463 C-97.31977493 42.09318127 -94.66918903 39.43330783 -92.01611328 36.77587891 C-89.30195085 34.05623721 -86.59719598 31.32743914 -83.89455795 28.59635162 C-81.79076093 26.47377889 -79.68013751 24.35809138 -77.56769562 22.24412537 C-76.56862774 21.24206535 -75.57201848 20.23754687 -74.57811737 19.23036194 C-66.9427013 11.50019772 -59.07612435 4.19385268 -48.8125 0.1875 C-47.87019531 -0.19019531 -46.92789063 -0.56789062 -45.95703125 -0.95703125 C-31.55283629 -6.03750688 -14.10842696 -6.34779718 0 0 Z " fill="#25A1F4" transform="translate(432,4)"/>
</svg>
